<svg width="246" height="328" viewBox="0 0 246 328" fill="none" xmlns="http://www.w3.org/2000/svg">
<path d="M245.624 202.807C245.624 274.156 186.557 331.528 115.207 327.271C41.8813 322.896 -8.3088 252.377 1.14206 178.665C6.8617 133.832 27.8805 95.3854 50.7591 65.559C54.7359 60.354 58.818 102.24 62.9001 97.6311C66.9939 92.894 104.938 27.2293 118.132 4.16355C118.699 3.14617 119.479 2.26284 120.418 1.57355C121.357 0.884264 122.433 0.405177 123.574 0.16883C124.715 -0.0675175 125.893 -0.055587 127.028 0.203814C128.164 0.463214 129.231 0.964008 130.156 1.67217C156.66 21.6734 245.624 96.8007 245.624 202.807Z" fill="#FF6723"/>
<path d="M210.533 232.178C210.533 279.455 169.373 317.458 119.311 315.738C65.2732 313.914 28.2183 264.46 36.1486 213.522C47.5996 140.488 122.575 93.5613 122.575 93.5613C122.575 93.5613 210.533 148.617 210.533 232.178Z" fill="#FFB02E"/>
</svg>
