<svg width="35" height="35" viewBox="0 0 35 35" fill="none" xmlns="http://www.w3.org/2000/svg">
<path d="M27.9497 21.3982C27.9497 27.9556 22.521 33.2285 15.9635 32.8372C9.22441 32.4351 4.61161 25.954 5.48021 19.1794C6.00588 15.0589 7.93764 11.5254 10.0403 8.78421C10.4058 8.30583 10.781 12.1554 11.1562 11.7318C11.5324 11.2965 15.0197 5.26146 16.2323 3.14157C16.2844 3.04807 16.3561 2.96688 16.4424 2.90353C16.5287 2.84018 16.6276 2.79615 16.7325 2.77443C16.8373 2.75271 16.9456 2.75381 17.05 2.77765C17.1543 2.80149 17.2524 2.84751 17.3374 2.9126C19.7733 4.75084 27.9497 11.6555 27.9497 21.3982Z" fill="#FF6723"/>
<path d="M24.7246 24.0975C24.7246 28.4426 20.9417 31.9352 16.3407 31.7772C11.3742 31.6095 7.96866 27.0645 8.69751 22.3829C9.74993 15.6706 16.6406 11.3577 16.6406 11.3577C16.6406 11.3577 24.7246 16.4177 24.7246 24.0975Z" fill="#FFB02E"/>
</svg>
