<svg width="235" height="57" viewBox="0 0 235 57" fill="none" xmlns="http://www.w3.org/2000/svg">
<g opacity="0.25">
<path d="M26.1304 56.4328C40.5618 56.4328 52.2607 54.5499 52.2607 52.2273C52.2607 49.9046 40.5618 48.0218 26.1304 48.0218C11.699 48.0218 0 49.9046 0 52.2273C0 54.5499 11.699 56.4328 26.1304 56.4328Z" fill="#1F3A12"/>
</g>
<path d="M21.39 52.1255C21.39 52.1255 17.1435 52.6054 14.5215 52.2001C11.8996 51.7947 11.6646 52.7063 8.30244 52.559C6.43588 52.4784 4.94224 51.5001 3.98332 50.647C3.98235 50.646 3.98138 50.646 3.98021 50.6451C3.54164 50.2549 3.21591 49.8907 3.01624 49.6508C2.90028 49.5106 2.977 49.2998 3.15434 49.2656C4.23834 49.0559 5.69566 49.3474 5.76326 49.3604C3.99245 48.0868 3.53756 46.1193 3.42762 45.4002C3.40548 45.254 3.52046 45.1219 3.66866 45.1279C4.88183 45.1743 5.5968 45.7139 5.5968 45.7139C5.42238 44.6682 5.85707 43.9633 6.09403 43.6679C6.17075 43.5731 6.30672 43.5488 6.40869 43.6164C7.27185 44.1882 7.96681 45.4457 7.96681 45.4457L8.28438 44.7983C8.3611 44.6429 8.57476 44.6179 8.68178 44.754C9.25651 45.4861 9.74869 46.8072 9.74869 46.8072C10.5382 45.1091 12.1014 43.7143 12.1014 43.7143C10.9922 42.5293 10.8156 41.1932 10.8156 41.1932L12.3283 41.3445C11.4711 39.6805 13.1775 38.8335 13.1775 38.8335C13.1775 38.8335 9.71451 36.9749 10.9922 33.7963C12.2698 30.6177 17.8454 28.5776 17.8454 28.5776L20.9586 49.2598L21.3902 52.1259L21.39 52.1255Z" fill="#49AF08"/>
<g opacity="0.25">
<path d="M21.3899 52.1255C21.3899 52.1255 17.1434 52.6054 14.5215 52.2001C11.8996 51.7947 11.6646 52.7062 8.3024 52.559C6.43584 52.4784 4.9422 51.5001 3.98328 50.647C6.07379 52.0055 9.63056 51.6807 10.5633 50.6954C11.4962 49.71 12.1767 50.1428 13.765 49.1151C15.3532 48.0874 14.2338 45.4453 14.2338 45.4453L20.9581 49.2592L21.3897 52.1253L21.3899 52.1255Z" fill="#1F3A12"/>
</g>
<g opacity="0.7">
<path d="M7.58846 49.5548L7.45911 49.6246C6.89234 49.9301 6.24749 50.0556 5.60652 49.9946C5.09822 49.9462 4.46289 49.9258 3.92098 50.0307C3.74346 50.0649 3.66693 50.2758 3.78288 50.4159C3.84951 50.4965 3.93108 50.5903 4.02587 50.6952C3.62051 50.3281 3.31692 49.9882 3.12735 49.7603C3.0114 49.6201 3.08812 49.4094 3.26545 49.3752C4.07423 49.2188 5.09181 49.342 5.58283 49.4185C5.79454 49.4033 6.07093 49.3793 6.09307 49.361C6.12842 49.3317 7.58866 49.5546 7.58866 49.5546L7.58846 49.5548Z" fill="#F7F7F7"/>
</g>
<g opacity="0.7">
<path d="M7.24542 44.4048C7.18598 44.3564 7.12538 44.3119 7.06381 44.2717C6.96203 44.2041 6.82588 44.2284 6.74915 44.3232C6.51219 44.6186 6.0775 45.3235 6.25192 46.3692C6.25192 46.3692 5.53696 45.8297 4.32379 45.7832C4.17559 45.7772 4.0606 45.9093 4.08274 46.0555C4.1684 46.6192 4.46693 47.9524 5.44722 49.1151C3.93649 47.8475 3.53015 46.0736 3.42741 45.4C3.40526 45.2538 3.52025 45.1217 3.66845 45.1277C4.88162 45.1741 5.59658 45.7137 5.59658 45.7137C5.42216 44.668 5.85685 43.9631 6.09382 43.6677C6.17054 43.5729 6.3065 43.5486 6.40847 43.6162C6.71711 43.8209 7.00438 44.1134 7.24542 44.4048Z" fill="#F7F7F7"/>
</g>
<g opacity="0.7">
<path d="M8.68155 44.7536C8.81557 44.924 8.94473 45.1268 9.06574 45.3375C9.01329 45.3587 8.96784 45.3969 8.93968 45.4535L8.10934 46.3463C8.10934 46.3463 8.40321 45.7056 8.05826 45.2579L8.28415 44.7979C8.36087 44.6425 8.57452 44.6175 8.68155 44.7536Z" fill="#F7F7F7"/>
</g>
<g opacity="0.7">
<path d="M13.9546 43.1211L12.7565 44.3696C12.7565 44.3696 11.1934 45.7642 10.4038 47.4626C10.0146 47.9961 9.72517 48.7111 9.48218 49.5127C9.48218 49.5127 9.43382 48.4265 9.62844 47.4443C9.73333 46.9199 9.85122 46.6083 9.94912 46.4258C9.94815 46.4227 9.94601 46.4207 9.94504 46.4176C10.7709 44.9008 12.101 43.7139 12.101 43.7139C10.9918 42.5289 10.8152 41.1928 10.8152 41.1928L12.3279 41.3441C11.6331 39.9948 12.6233 39.1831 13.0226 38.9238C13.4703 39.2938 13.8324 39.4884 13.8324 39.4884C13.8324 39.4884 12.1261 40.3354 12.9832 41.9994L11.4705 41.8481C11.4705 41.8481 11.5935 42.7769 12.2774 43.7722L13.8324 42.6427L13.9544 43.1207L13.9546 43.1211Z" fill="#F7F7F7"/>
</g>
<g opacity="0.7">
<path d="M10.9919 33.796C12.2696 30.6174 17.8452 28.5774 17.8452 28.5774L17.9753 29.4437C16.5575 30.0396 12.6851 31.87 11.6475 34.4516C10.996 36.0732 11.5779 37.3509 12.304 38.214C11.3752 37.4235 10.1468 35.8986 10.9919 33.796Z" fill="#F7F7F7"/>
</g>
<path d="M41.9408 39.5532C41.1571 40.4778 40.3982 40.9471 39.6971 40.369L40.0873 37.8147L41.9408 39.5532Z" fill="#EFE029"/>
<path d="M43.8439 35.2423L41.7157 36.1843L43.1827 37.8924" fill="#EFE029"/>
<path d="M42.8403 31.4697L41.43 33.5791L43.7087 33.7957" fill="#EFE029"/>
<path d="M42.6447 51.7069C42.0467 51.8975 41.4123 52.063 40.7408 52.2001C40.7408 52.2001 35.4638 53.7147 31.3624 51.7988C31.1415 51.8503 30.9238 51.8986 30.7068 51.9429V51.9439C23.7607 53.4133 19.0512 52.1214 16.4858 49.4581C14.5103 47.4099 13.8023 44.5501 14.3197 41.5127C14.3197 41.5127 16.6089 30.6367 19.5323 24.2754L26.8051 24.0113L26.9957 24.0043L34.9199 23.7158C34.9199 23.7158 34.8918 28.2346 36.4376 32.4024C37.9494 36.4765 39.2996 38.1738 39.7988 40.8521C39.8109 40.9146 39.8219 40.9782 39.8332 41.0417C39.8715 41.0215 39.9099 41.0024 39.9482 40.9811C43.7934 38.9461 44.6132 35.4134 43.1922 32.1834C43.1742 32.142 43.1559 32.1006 43.1367 32.0592C42.569 30.8198 41.6714 29.6288 40.4885 28.5872C43.0137 28.4601 45.2907 29.5321 47.0736 31.2878H47.0745C47.7703 31.9724 48.3905 32.761 48.9209 33.6234C49.1215 33.9481 49.3092 34.284 49.4826 34.6278V34.6287C52.4414 40.4899 51.4591 48.8921 42.6443 51.7067L42.6447 51.7069Z" fill="#49AF08"/>
<path d="M30.7068 51.9429V51.9439C18.417 54.5437 13.1308 48.499 14.3197 41.5125C14.3197 41.5125 16.6089 30.6365 19.5323 24.2752L26.9958 24.0039C29.2548 25.0515 29.6127 26.2849 29.6127 26.2849C29.6127 26.2849 28.7626 29.7137 30.0797 32.3012C31.3956 34.89 36.2856 45.4886 30.7068 51.9427V51.9429Z" fill="#D7FF5C"/>
<g opacity="0.7">
<path d="M43.9466 38.6545C41.8833 42.4865 39.9513 41.7807 39.9513 41.7807V41.0415L39.9482 40.9809C43.7934 38.9459 44.6132 35.4132 43.1922 32.1831C43.1742 32.1418 43.1559 32.1004 43.1367 32.059L43.3696 31.8331C43.3696 31.8331 46.0086 34.8222 43.9464 38.6542L43.9466 38.6545Z" fill="#F7F7F7"/>
</g>
<path d="M42.6447 51.7069C42.5237 51.4466 42.4592 51.2934 42.4592 51.2934L43.9678 47.7186C48.4272 45.4224 50.6337 41.3482 49.483 34.6291C52.4418 40.4902 51.4595 48.8925 42.6447 51.7071V51.7069Z" fill="#D7FF5C"/>
<g opacity="0.3">
<path d="M47.0738 31.2879C43.6592 29.3316 43.2618 32.2348 43.2618 32.2348L43.1923 32.1834C42.6286 30.8997 41.7109 29.6632 40.4886 28.5874C43.0138 28.4603 45.2907 29.5323 47.0736 31.2879H47.0738Z" fill="#3D1D55"/>
</g>
<path d="M16.971 31.3936C17.8495 31.7467 18.7905 31.985 19.7163 32.1899C21.2052 32.4904 22.7261 32.6767 24.2494 32.7134C24.7166 32.739 25.4457 32.7206 25.9181 32.7198C26.1846 32.7058 26.9098 32.6685 27.1699 32.6551C27.4669 32.6338 28.1181 32.5627 28.4194 32.5355C28.8999 32.4871 29.5972 32.3675 30.0793 32.302C29.5966 32.3978 28.911 32.5578 28.4339 32.6353C25.528 33.1457 22.5293 33.2339 19.6052 32.8105C18.6144 32.6528 17.6279 32.4646 16.6736 32.1437L16.9712 31.3938L16.971 31.3936Z" fill="#1F3A12"/>
<path d="M15.1407 37.844C15.4513 37.9165 15.9105 38.0536 16.2228 38.1373C20.0532 39.167 24.0921 39.4804 28.0352 39.023C29.4806 38.8807 30.9038 38.5757 32.3203 38.2418C27.7728 39.622 22.916 39.9856 18.2129 39.273C17.3105 39.138 16.3966 38.9585 15.5068 38.7499C15.3878 38.7208 15.1291 38.6627 15.0069 38.6396L15.1405 37.844H15.1407Z" fill="#1F3A12"/>
<path d="M14.6486 44.7089C14.6408 44.6392 14.6059 44.5619 14.5559 44.5118C14.6738 44.6167 14.8185 44.7095 14.9562 44.7998C17.57 46.3995 20.6573 47.1298 23.7116 47.1815C27.0219 47.2299 30.3116 46.3892 33.302 44.9758C28.8737 47.3227 23.6205 48.2774 18.7022 47.0667C17.4679 46.7676 16.2557 46.3479 15.1163 45.7749C14.7467 45.583 14.3751 45.3888 14.0418 45.1306C13.9486 45.0586 13.8678 44.9475 13.8507 44.8278L14.6486 44.7089Z" fill="#1F3A12"/>
<path d="M45.322 46.9183C45.969 47.6826 46.2187 48.7369 46.177 49.7261C46.1706 49.9569 46.1387 50.2065 46.1078 50.4351L45.3297 50.222C45.4247 49.9697 45.5238 49.6952 45.5789 49.4293C45.7675 48.5965 45.7202 47.6902 45.322 46.9183Z" fill="#1F3A12"/>
<path d="M48.1188 44.1278C49.0518 44.7414 49.706 45.6986 49.7398 46.8451L48.9351 46.7868C49.0357 46.3473 49.0233 45.8732 48.8766 45.4123C48.7354 44.9352 48.4354 44.5089 48.1186 44.1278H48.1188Z" fill="#1F3A12"/>
<path d="M49.5793 40.369C50.3438 40.5953 50.9384 41.2227 51.3105 41.9126L50.5462 42.1709C50.5322 42.0897 50.5218 42.0054 50.5049 41.9231C50.3804 41.3252 50.077 40.7443 49.5791 40.369H49.5793Z" fill="#1F3A12"/>
<path d="M36.2934 53.1771C34.7201 53.1771 32.9454 52.9516 31.3191 52.2222C24.823 53.7013 19.5609 52.9249 16.4909 50.0315C14.2512 47.9208 13.3387 44.8711 13.922 41.4445C13.9227 41.4393 13.9239 41.4342 13.9249 41.4292C13.9478 41.32 16.2574 30.4357 19.1652 24.107L19.8983 24.4438C17.0602 30.6206 14.788 41.2475 14.7158 41.5876C14.182 44.7361 15.0087 47.5263 17.0438 49.4443C19.9325 52.1665 24.985 52.863 31.2709 51.4053C31.3589 51.3849 31.4512 51.3946 31.5327 51.4329C35.445 53.2606 40.5779 51.827 40.6294 51.8122C40.6393 51.8093 40.6496 51.8068 40.6599 51.8048C48.8594 50.1327 51.109 44.2179 50.4802 39.2404C49.8585 34.3187 46.3827 29.3806 41.5054 29.0032C43.4912 31.0745 44.4882 33.6117 44.198 35.9505C43.9156 38.2249 42.4309 40.1604 40.0172 41.4004C39.9026 41.4593 39.767 41.4598 39.652 41.4024C39.537 41.3447 39.4564 41.2357 39.4351 41.1089C39.1676 39.5226 38.5843 38.2814 37.846 36.7103C37.31 35.5692 36.7022 34.276 36.0595 32.5433C34.5055 28.3541 34.515 23.9007 34.5163 23.7131L35.323 23.718C35.3228 23.7624 35.3146 28.2156 36.816 32.2624C37.4471 33.9633 38.0469 35.2404 38.5764 36.3671C39.2558 37.813 39.8082 38.9888 40.1234 40.4225C42.0356 39.3025 43.1641 37.731 43.3974 35.8512C43.6893 33.4993 42.5024 30.8971 40.2217 28.8903C40.0986 28.782 40.0533 28.6097 40.1073 28.4547C40.1613 28.2997 40.304 28.1931 40.468 28.1847C43.1171 28.052 45.6986 29.1918 47.7396 31.3942C49.6252 33.4292 50.9159 36.2521 51.2807 39.1396C51.661 42.1494 51.0188 45.0642 49.4731 47.3468C47.6846 49.988 44.6981 51.8017 40.836 52.5924C40.6067 52.6571 38.6824 53.1771 36.293 53.1773L36.2934 53.1771Z" fill="#1F3A12"/>
<path d="M40.2355 41.0117L39.9509 43.0416L39.431 41.0714L40.2355 41.0117Z" fill="#1F3A12"/>
<path d="M42.0814 47.3738C41.404 45.5284 40.1582 43.8718 38.5472 42.7356C37.9995 42.3516 37.4022 42.0336 36.7744 41.7811C38.0863 42.1542 39.3094 42.8511 40.3283 43.7617C41.3616 44.6958 42.2411 45.8235 42.8368 47.09L42.0814 47.3736V47.3738Z" fill="#1F3A12"/>
<path d="M40.0962 40.4299L39.2989 40.3081L39.6893 37.7537C39.7118 37.6057 39.8148 37.4824 39.9563 37.4334C40.0979 37.3845 40.2549 37.4181 40.364 37.5205L42.2168 39.259L41.6648 39.8474L40.3708 38.6332L40.0962 40.4299Z" fill="#1F3A12"/>
<path d="M42.8766 38.1552L41.4096 36.4471C41.3265 36.3504 41.294 36.2199 41.3222 36.0954C41.3503 35.9709 41.4356 35.867 41.5525 35.8155L43.6809 34.8735L44.0074 35.6111L42.3757 36.3333L43.4888 37.6294L42.8768 38.155L42.8766 38.1552Z" fill="#1F3A12"/>
<path d="M43.6706 34.1973L41.3919 33.9808C41.2505 33.9674 41.1266 33.8806 41.0656 33.7522C41.0048 33.6238 41.0157 33.4731 41.0945 33.355L42.5051 31.2456L43.1757 31.6941L42.1409 33.2417L43.7468 33.3944L43.6704 34.1975L43.6706 34.1973Z" fill="#1F3A12"/>
<g opacity="0.25">
<path d="M42.6448 51.679C42.0467 51.8695 41.4124 52.035 40.7409 52.1721C40.7409 52.1721 35.4638 53.6867 31.3624 51.7708C31.1416 51.8223 30.9238 51.8707 30.7069 51.9149V51.9159C23.7608 53.3853 19.0513 52.0934 16.4858 49.4301C21.6763 52.3961 32.3204 49.7518 32.3204 49.7518C33.2783 51.0778 35.9508 51.0477 35.9508 51.0477C40.2367 50.0392 37.1105 44.039 35.1451 42.4256C33.1797 40.8121 35.0936 39.4002 35.1441 37.333C35.1946 35.2658 33.0223 27.7589 33.0223 27.7589C28.8172 28.1239 23.8233 26.3743 23.8233 26.3743L26.8054 23.9833L26.9959 23.9763L34.9202 23.6879C34.9202 23.6879 34.892 28.2067 36.4379 32.3745C37.9496 36.4485 39.2999 38.1459 39.7991 40.8241C39.8253 41.0481 39.8373 41.2567 39.8334 41.4503C39.787 43.7496 40.8198 44.4786 40.8198 44.4786C50.4443 44.3133 48.9215 33.5954 48.9215 33.5954C49.1222 33.9202 49.3098 34.256 49.4833 34.5998V34.6008C52.442 40.4619 51.4598 48.8641 42.6449 51.6788L42.6448 51.679Z" fill="#1F3A12"/>
</g>
<path d="M39.161 53.2101C41.8821 52.5633 43.6126 50.869 43.6225 47.3561C43.6232 47.0704 43.3529 46.863 43.0753 46.93C42.6295 47.0376 41.9894 47.4179 41.4805 48.6217C41.4805 48.6217 41.5077 47.1802 40.877 46.4502C40.7438 46.296 40.5206 46.2554 40.3405 46.3506C39.9762 46.5433 39.3641 47.0426 38.993 48.3024C38.993 48.3024 38.7655 47.4997 37.7258 46.7896C37.495 46.6318 37.1759 46.7243 37.0693 46.9826C36.8747 47.4538 36.6527 48.3257 36.7744 49.7226C36.7744 49.7226 35.8683 49.4272 34.6363 49.6197C34.359 49.663 34.1904 49.9478 34.2883 50.2109C34.6808 51.266 35.9313 53.6302 39.161 53.2101Z" fill="#49AF08"/>
<g opacity="0.7">
<path d="M38.6131 47.6178C38.4921 47.5109 38.3528 47.401 38.1967 47.294C37.9657 47.1357 37.647 47.2285 37.5401 47.4867C37.3455 47.9577 37.1227 48.83 37.2447 50.2267C37.2447 50.2267 36.3392 49.9313 35.1068 50.1237C34.8295 50.167 34.6611 50.4526 34.7589 50.7158C34.9031 51.1021 35.1614 51.6636 35.5908 52.2003C34.8699 51.5407 34.4785 50.7229 34.2879 50.2115C34.19 49.9483 34.3584 49.663 34.6368 49.6195C35.868 49.4268 36.7747 49.7224 36.7747 49.7224C36.6527 48.3257 36.8745 47.4534 37.0691 46.9824C37.176 46.7243 37.4947 46.6314 37.7256 46.7897C38.1361 47.07 38.4194 47.3635 38.6131 47.6178Z" fill="#F7F7F7"/>
</g>
<g opacity="0.7">
<path d="M40.877 46.4498C40.9708 46.5588 41.0495 46.6827 41.1159 46.816C41.0151 46.7917 40.9071 46.8039 40.8113 46.8542C40.4464 47.0469 39.8342 47.547 39.463 48.8066C39.463 48.8066 39.3752 48.497 39.0596 48.0926C39.4336 46.9863 39.9975 46.5316 40.3403 46.35C40.5208 46.2552 40.7437 46.2956 40.8768 46.4498H40.877Z" fill="#F7F7F7"/>
</g>
<g opacity="0.7">
<path d="M43.6219 47.3565C43.6219 47.3796 43.6219 47.402 43.6209 47.4241C43.5956 47.4251 43.5704 47.4282 43.5453 47.4342C43.0996 47.5422 42.4602 47.9223 41.9511 49.1264C41.9511 49.1264 41.9612 48.5656 41.8169 47.9666C42.2506 47.2697 42.7235 47.0157 43.0755 46.93C43.3528 46.8634 43.623 47.0702 43.6221 47.3565H43.6219Z" fill="#F7F7F7"/>
</g>
<g opacity="0.7">
<path d="M41.4801 48.6221C41.4801 48.6221 41.5003 47.5774 41.1161 46.816C41.2049 46.8352 41.2865 46.8814 41.348 46.9541C41.585 47.2283 41.7293 47.6046 41.8169 47.9666C41.7 48.1521 41.5869 48.3691 41.4801 48.6221Z" fill="#F7F7F7"/>
</g>
<g opacity="0.25">
<path d="M43.6219 47.3565C43.6127 50.869 41.8823 52.5631 39.1606 53.2105C35.9315 53.63 34.681 51.2662 34.2877 50.2113C34.2463 50.0995 34.2523 49.9845 34.2947 49.8856C34.9512 50.9898 36.2632 52.2958 38.7319 51.9752C41.2388 51.3793 42.9048 49.8948 43.159 46.9189C43.4051 46.9069 43.6228 47.0994 43.6219 47.3565Z" fill="#1F3A12"/>
</g>
<path d="M38.4087 53.664C35.4797 53.664 34.2978 51.3934 33.9101 50.3517C33.8212 50.1128 33.8441 49.85 33.9727 49.6304C34.1018 49.4099 34.3207 49.2607 34.5738 49.2213C35.3 49.1077 35.9224 49.152 36.3402 49.2163C36.3046 48.0586 36.506 47.2887 36.6962 46.8286C36.7933 46.5936 36.9891 46.417 37.2334 46.3442C37.4787 46.2711 37.7411 46.3117 37.9532 46.4566C38.3945 46.7581 38.7059 47.0787 38.9227 47.3614C39.3035 46.5827 39.7796 46.1909 40.1519 45.994C40.5012 45.8092 40.9248 45.8887 41.1822 46.1864C41.469 46.5186 41.639 46.9612 41.7394 47.3786C42.1718 46.8453 42.6251 46.6237 42.9805 46.5378C43.2362 46.476 43.5005 46.5341 43.7064 46.6965C43.9101 46.8573 44.0265 47.0982 44.0259 47.3571C44.021 49.1316 43.5817 50.5636 42.7205 51.6137C41.9329 52.5739 40.7667 53.2431 39.2544 53.6026C39.2408 53.6059 39.227 53.6084 39.2132 53.6102C38.9316 53.6469 38.6636 53.664 38.4089 53.664H38.4087ZM35.4729 49.9584C35.2381 49.9584 34.977 49.9747 34.6985 50.0182C34.6937 50.019 34.6785 50.0214 34.6688 50.0381C34.6599 50.0534 34.6645 50.0658 34.6661 50.0705C35.1048 51.2495 36.2625 53.1702 39.0881 52.813C41.8975 52.1383 43.2105 50.4034 43.2191 47.3551C43.2191 47.3507 43.2191 47.34 43.2064 47.3299C43.1958 47.3215 43.1835 47.3188 43.1699 47.3221C42.8133 47.4084 42.2949 47.731 41.8521 48.7789C41.7767 48.957 41.5858 49.0566 41.3966 49.0164C41.2074 48.9762 41.0734 48.8076 41.0771 48.6141C41.0829 48.2556 41.0037 47.2139 40.5715 46.714C40.5616 46.7025 40.5433 46.6996 40.529 46.7072C40.2434 46.8581 39.7143 47.2809 39.3797 48.4164C39.3292 48.5881 39.1715 48.7058 38.9928 48.7058H38.9906C38.811 48.7049 38.6536 48.5852 38.6047 48.4123C38.5973 48.3884 38.3885 47.7308 37.498 47.1224C37.4875 47.1153 37.476 47.1135 37.4638 47.117C37.4477 47.1219 37.4434 47.1325 37.4416 47.1364C37.2577 47.5816 37.0623 48.3857 37.1759 49.6873C37.1878 49.8223 37.1311 49.954 37.025 50.0383C36.919 50.1225 36.7776 50.148 36.649 50.1058C36.6437 50.1041 36.1749 49.958 35.4727 49.958L35.4729 49.9584Z" fill="#1F3A12"/>
<path d="M36.8244 49.3223C36.8605 49.3305 36.9031 49.3433 36.9328 49.3591C37.3484 49.5762 37.7169 49.8905 37.9987 50.2611C38.0929 50.386 38.1706 50.5208 38.2366 50.6554C38.1174 50.5619 37.9958 50.4798 37.8664 50.4133C37.5063 50.2335 37.1066 50.1152 36.7057 50.1136C36.6956 50.114 36.7214 50.1216 36.7244 50.1226L36.8244 49.3222V49.3223Z" fill="#1F3A12"/>
<path d="M9.01897 52.9791C8.79133 52.9791 8.54757 52.9739 8.28516 52.9624C5.43229 52.8383 3.43268 50.7847 2.70528 49.9078C2.55922 49.7316 2.51804 49.4979 2.59496 49.2827C2.67207 49.0673 2.85251 48.9125 3.07762 48.869C3.55155 48.7775 4.08277 48.7732 4.55203 48.8018C3.46434 47.5599 3.1289 46.1169 3.02887 45.4612C2.99993 45.2714 3.05664 45.0803 3.18464 44.937C3.31167 44.7946 3.49347 44.7161 3.68362 44.7245C4.29545 44.7478 4.79502 44.8867 5.15881 45.032C5.20931 44.2525 5.54669 43.7054 5.77977 43.4154C5.98877 43.1551 6.35489 43.0966 6.63128 43.2798C7.1561 43.6277 7.61448 44.1888 7.92059 44.6237L7.92215 44.6206C8.01984 44.4213 8.21039 44.2884 8.43142 44.2653C8.6511 44.2422 8.86281 44.3318 8.99858 44.5046C9.30682 44.8974 9.58768 45.4344 9.79182 45.8751C10.3901 44.8919 11.1398 44.0884 11.544 43.6875C10.5922 42.5087 10.4227 41.3006 10.4153 41.2454C10.3992 41.1232 10.4398 41.0005 10.5254 40.9119C10.6111 40.8234 10.7323 40.7785 10.8552 40.7913L11.7304 40.8787C11.6535 40.5223 11.6696 40.175 11.7792 39.8405C11.9222 39.4047 12.2024 39.0747 12.458 38.848C12.1261 38.6079 11.6873 38.2432 11.2928 37.7615C10.2704 36.513 10.0367 35.0894 10.6173 33.6449C11.9462 30.3378 17.4713 28.284 17.7058 28.1981L17.983 28.9558C17.929 28.9756 12.5606 30.9723 11.3657 33.9458C10.2403 36.746 13.2394 38.4083 13.3678 38.4776C13.5003 38.5493 13.5821 38.6889 13.5793 38.8397C13.5768 38.9902 13.4906 39.1269 13.3558 39.1939C13.3511 39.1963 12.7315 39.5168 12.5439 40.0969C12.4388 40.4221 12.4854 40.7694 12.6861 41.159C12.7539 41.2905 12.7441 41.4484 12.661 41.5706C12.5779 41.6927 12.4349 41.7601 12.2873 41.745L11.3445 41.6508C11.4929 42.1068 11.7973 42.7993 12.3951 43.4379C12.4693 43.5171 12.5085 43.6232 12.5037 43.7316C12.4988 43.8402 12.4505 43.9421 12.3693 44.0144C12.3543 44.0278 10.8574 45.3773 10.1135 46.9762C10.0447 47.1236 9.89476 47.2149 9.73199 47.2091C9.56962 47.2027 9.42666 47.0994 9.36995 46.9471C9.36568 46.9358 8.98401 45.92 8.52349 45.2252L8.32829 45.6226C8.26205 45.7576 8.12628 45.8444 7.97614 45.8479C7.97284 45.8479 7.96954 45.8479 7.96643 45.8479C7.81998 45.8479 7.6846 45.7683 7.61351 45.6397C7.60749 45.6288 7.02674 44.5909 6.31624 44.0453C6.10861 44.3516 5.86854 44.8908 5.99459 45.6471C6.02178 45.8099 5.94681 45.9728 5.8058 46.0585C5.6644 46.1437 5.48551 46.1348 5.35363 46.0354C5.34955 46.0322 4.79424 45.6308 3.86193 45.5438C4.01809 46.3597 4.5062 47.961 6.00003 49.0329C6.15464 49.144 6.21058 49.348 6.13424 49.5226C6.05772 49.697 5.8697 49.7941 5.68324 49.7557C5.67042 49.7529 4.49668 49.5146 3.52067 49.618C4.29953 50.4922 6.00683 52.0552 8.32032 52.156C9.89806 52.2245 10.7663 52.0532 11.5323 51.9021C12.4054 51.7298 13.1596 51.5809 14.5831 51.8009C17.1225 52.1933 21.3031 51.7291 21.3451 51.7244L21.4356 52.526C21.26 52.5458 17.1046 53.0069 14.46 52.5982C13.1763 52.3999 12.5198 52.5295 11.6885 52.6936C11.0052 52.8286 10.2446 52.9786 9.01917 52.9788L9.01897 52.9791Z" fill="#1F3A12"/>
<path d="M12.3646 44.0194L11.8379 43.4086C11.8759 43.3757 12.7828 42.5963 14.0098 41.7753L14.4584 42.4458C13.2746 43.238 12.3739 44.0118 12.3648 44.0196L12.3646 44.0194Z" fill="#1F3A12"/>
<path d="M10.1669 46.8459C9.8901 47.4393 9.63546 48.0507 9.48221 48.693C9.39345 48.1958 9.37558 47.6784 9.37344 47.1707C9.37383 46.9986 9.37519 46.8311 9.38354 46.6526L10.1669 46.8457V46.8459Z" fill="#1F3A12"/>
<path d="M5.95438 45.5276L6.32789 47.1174L5.23903 45.9004L5.95438 45.5276Z" fill="#1F3A12"/>
<path d="M8.365 45.382L8.15562 46.6385L7.56807 45.5082L8.365 45.382Z" fill="#1F3A12"/>
<path d="M5.80442 48.9599L7.29418 49.5125L5.72517 49.7627L5.80442 48.9599Z" fill="#1F3A12"/>
<path d="M15.4838 35.2163C15.4399 34.6984 15.2665 34.1804 14.9671 33.7498C14.8627 33.5999 14.7337 33.4678 14.5886 33.3439C14.7657 33.4085 14.9444 33.4919 15.1068 33.6043C15.6101 33.9539 16.0026 34.4566 16.264 35.0119L15.4836 35.2164L15.4838 35.2163Z" fill="#1F3A12"/>
<path d="M12.566 41.0186L12.9836 41.8233L12.09 41.6698L12.566 41.0186Z" fill="#1F3A12"/>
<g opacity="0.25">
<path d="M16.4858 32.3319C16.4039 32.3354 15.6895 33.6296 14.5886 33.2262C14.5886 33.2262 13.4923 33.0246 14.2337 34.7641C14.9751 36.5036 14.6727 39.8316 14.7482 39.7559C14.8238 39.6803 16.3623 33.3439 16.3623 33.3439" fill="#1F3A12"/>
</g>
<path d="M27.8459 26.323C27.8459 26.323 33.464 25.9854 38.4212 22.9168C42.9629 20.1054 43.4621 16.0396 42.3905 12.6889C41.4899 9.87216 39.1231 6.97034 39.1231 6.97034C39.1231 6.97034 37.6245 3.14184 35.9473 1.83117C34.171 0.442996 32.0312 -0.365008 28.8058 1.26401C28.8058 1.26401 25.2941 -0.017333 21.3879 1.21176C21.3879 1.21176 19.1513 -0.41007 16.7921 0.774549C14.5923 1.87914 14.1061 5.86866 14.1061 5.86866C14.1061 5.86866 11.235 8.40125 11.0683 11.3598C10.9085 14.1961 7.59761 18.7468 7.59761 18.7468C7.59761 18.7468 7.22644 20.8554 8.59402 21.5954C9.9618 22.3354 10.7195 22.3411 12.1582 23.1912C14.5443 24.6011 17.208 25.6945 22.0343 26.0008" fill="#49AF08"/>
<path d="M42.4522 18.1862C41.8662 19.9075 40.6158 21.5583 38.421 22.9169C33.4636 25.985 27.846 26.3232 27.846 26.3232L22.0342 26.0006C17.2083 25.6941 14.5443 24.6013 12.1579 23.1912C10.7198 22.3407 9.96156 22.335 8.59417 21.5954C8.45879 21.5216 8.33973 21.4346 8.23601 21.3373C7.29651 20.457 7.59776 18.747 7.59776 18.747C7.59776 18.747 10.9082 14.1965 11.0683 11.3598C11.2353 8.40086 14.1057 5.86905 14.1057 5.86905C14.1057 5.86905 14.5926 1.87934 16.7923 0.774549C19.1518 -0.410069 21.388 1.21235 21.388 1.21235C25.2944 -0.0173333 28.8061 1.26401 28.8061 1.26401C32.0317 -0.364813 34.1708 0.443191 35.9472 1.83097C37.6242 3.14204 39.1231 6.97112 39.1231 6.97112C39.1231 6.97112 41.4898 9.87255 42.3911 12.6897C42.9452 14.4213 43.0792 16.3438 42.4524 18.1866L42.4522 18.1862Z" fill="#49AF08"/>
<path d="M37.8107 11.2233C38.6468 11.208 39.3145 10.6478 39.3021 9.97212C39.2897 9.29642 38.6019 8.76109 37.7659 8.77641C36.9299 8.79173 36.2622 9.35191 36.2745 10.0276C36.2869 10.7033 36.9747 11.2386 37.8107 11.2233Z" fill="#3A8E04"/>
<path d="M34.184 12.3288C34.7868 12.3177 35.2683 11.9138 35.2594 11.4265C35.2505 10.9393 34.7545 10.5532 34.1516 10.5643C33.5488 10.5753 33.0673 10.9793 33.0762 11.4666C33.0851 11.9538 33.5811 12.3398 34.184 12.3288Z" fill="#3A8E04"/>
<path d="M40.5494 13.2297C41.0868 13.2098 41.5088 12.8248 41.4919 12.3699C41.4751 11.9149 41.0258 11.5623 40.4884 11.5822C39.951 11.6021 39.5291 11.987 39.5459 12.4419C39.5627 12.8969 40.012 13.2496 40.5494 13.2297Z" fill="#3A8E04"/>
<path d="M37.318 13.5959C37.7977 13.5781 38.1744 13.2345 38.1594 12.8283C38.1443 12.4221 37.7433 12.1073 37.2636 12.125C36.7839 12.1428 36.4072 12.4864 36.4222 12.8926C36.4372 13.2988 36.8383 13.6137 37.318 13.5959Z" fill="#3A8E04"/>
<path d="M40.5662 16.0286C41.1035 16.0087 41.5255 15.6237 41.5087 15.1688C41.4918 14.7138 41.0425 14.3612 40.5052 14.381C39.9678 14.4009 39.5458 14.7859 39.5626 15.2408C39.5795 15.6958 40.0288 16.0484 40.5662 16.0286Z" fill="#3A8E04"/>
<g opacity="0.5">
<path d="M28.4577 2.63625C29.1433 1.99568 30.6234 0.905652 32.8768 1.23196C34.8221 1.51379 36.3819 3.94285 36.0556 3.64296C32.4925 0.368602 27.9937 3.06978 28.4579 2.63625H28.4577Z" fill="white"/>
</g>
<g opacity="0.5">
<path d="M15.5452 3.10242C15.8816 2.18837 16.9619 0.596056 19.2154 0.922559C21.1606 1.20439 22.0511 3.03055 21.7023 2.75164C17.3865 -0.698303 15.336 3.67055 15.5452 3.10242Z" fill="white"/>
</g>
<g opacity="0.3">
<path d="M42.4522 18.1862C41.8662 19.9075 40.6158 21.5583 38.421 22.9169C33.4636 25.985 27.846 26.3232 27.846 26.3232L22.0342 26.0006C17.2084 25.6941 14.5443 24.6013 12.1579 23.1912C10.7199 22.3407 9.96157 22.335 8.59418 21.5954C8.45881 21.5216 8.33974 21.4346 8.23602 21.3373C9.65896 21.8976 10.4672 21.7114 12.2424 22.4605C17.8433 24.8272 18.3361 22.8039 20.8756 22.9527C26.6935 23.2936 38.022 25.2932 42.4503 18.1886C42.4503 18.1878 42.4513 18.187 42.4522 18.1862Z" fill="#1F3A12"/>
</g>
<path d="M38.2562 21.8714C37.3719 23.1995 35.9995 24.2676 34.3361 24.8697C30.8125 26.1451 27.8458 26.3224 27.8458 26.3224L25.2744 26.4253L22.034 26.0006C17.2081 25.695 14.5441 24.6013 12.1577 23.1904C10.7187 22.3416 9.96117 22.336 8.59398 21.5946C8.4584 21.5216 8.34031 21.4346 8.23756 21.3374C9.65953 21.8968 10.4677 21.7115 12.2422 22.4607C17.8431 24.8274 18.3359 22.8041 20.8754 22.9529C25.3012 23.2122 32.9164 24.4312 38.2561 21.8716L38.2562 21.8714Z" fill="#ABD625"/>
<path d="M34.3363 24.8699C30.8123 26.1447 27.8457 26.3226 27.8457 26.3226L25.2744 26.4254L22.0339 26.0004C17.2082 25.6947 14.5445 24.6009 12.158 23.1906C10.7189 22.3412 9.961 22.3354 8.5942 21.5948C7.22642 20.8548 7.59701 18.7462 7.59701 18.7462C7.59701 18.7462 8.10881 18.1418 8.76648 17.2365C12.4887 17.8106 17.2387 18.2882 20.7908 17.7675C24.9757 17.1535 29.9906 14.0033 33.1958 13.8017C34.8318 13.6983 35.7171 13.7486 37.0579 14.4273C38.6886 15.2526 39.4255 16.8396 39.3381 18.6578C39.2059 21.4083 37.2043 23.8324 34.3363 24.8698V24.8699Z" fill="#D7FF5C"/>
<path d="M8.23872 21.3375C8.23872 21.3375 8.23795 21.3373 8.23756 21.3371C8.263 21.3615 8.28942 21.3848 8.31797 21.408C8.34419 21.4303 8.37275 21.4524 8.4011 21.4734C8.42577 21.4907 8.45063 21.508 8.47647 21.5243C8.48948 21.5334 8.5023 21.5416 8.51512 21.5496C8.54076 21.5647 8.56756 21.5799 8.59436 21.595C8.68021 21.6408 8.76257 21.6849 8.84356 21.7261C8.88396 21.7461 8.92456 21.7663 8.96379 21.7854C9.04226 21.8236 9.11957 21.8599 9.1957 21.8945C9.27068 21.9291 9.34526 21.9615 9.41771 21.9922C9.52687 22.0382 9.63234 22.0814 9.73645 22.1225C9.7718 22.1359 9.80618 22.1493 9.84055 22.1627C10.1494 22.2806 10.446 22.3844 10.7585 22.5079C10.8628 22.5491 10.9683 22.5924 11.0763 22.6394C11.4016 22.7804 11.7528 22.9519 12.1575 23.1904C14.5435 24.6013 17.2079 25.6947 22.0342 26.001L25.2742 26.4257L27.8449 26.323H27.846C27.846 26.323 30.8117 26.1449 34.3355 24.8701C34.5441 24.7954 34.7463 24.7118 34.9448 24.6227C34.9852 24.605 35.0244 24.5873 35.0637 24.5687C35.125 24.5399 35.1854 24.5104 35.2445 24.4809C35.2909 24.4576 35.3375 24.4343 35.3828 24.41C35.4651 24.3682 35.5452 24.3247 35.6238 24.2793C35.6607 24.2589 35.6963 24.2385 35.732 24.2171C36.05 24.032 36.3518 23.8279 36.6344 23.6069C36.6696 23.5795 36.7045 23.5519 36.7395 23.5235C36.8096 23.4676 36.8772 23.4109 36.9448 23.352C36.9786 23.3227 37.0124 23.2932 37.045 23.2638C37.1114 23.2042 37.1755 23.1446 37.2396 23.083C37.3037 23.0214 37.3665 22.9589 37.4271 22.8965C37.4725 22.8488 37.5178 22.801 37.5621 22.7534C37.6215 22.6891 37.6796 22.6231 37.7365 22.5568C37.7606 22.5302 37.7835 22.5019 37.8064 22.4743C37.9678 22.2799 38.1176 22.0794 38.2555 21.8716C38.8976 20.9105 39.282 19.8129 39.3377 18.6574C39.4253 16.8394 38.6876 15.2526 37.0571 14.4273C35.7169 13.7481 34.831 13.6983 33.1959 13.8017C29.9903 14.0029 24.9751 17.1529 20.7909 17.7679C17.2388 18.2884 12.4887 17.8104 8.76684 17.2363C8.10878 18.1414 7.59679 18.7464 7.59679 18.7464C7.59679 18.7464 7.2967 20.4572 8.23853 21.3376L8.23872 21.3375Z" fill="#D7FF5C"/>
<g opacity="0.25">
<path d="M8.23757 21.3371C8.26302 21.3615 8.28943 21.3849 8.31798 21.408C8.3442 21.4303 8.37276 21.4524 8.40112 21.4734C8.42578 21.4907 8.45064 21.508 8.47648 21.5243C8.48949 21.5334 8.50231 21.5416 8.51513 21.5496C8.54077 21.5647 8.56757 21.5799 8.59437 21.595C8.68023 21.6409 8.76258 21.6849 8.84357 21.7261C8.88397 21.7461 8.92457 21.7663 8.9638 21.7854C9.04227 21.8236 9.11958 21.8599 9.19571 21.8945C9.27069 21.9291 9.34527 21.9615 9.41772 21.9922C9.52688 22.0392 9.63235 22.0823 9.73646 22.1225C9.77181 22.1359 9.80619 22.1494 9.84057 22.1628C10.1496 22.2816 10.446 22.3853 10.7585 22.5079C10.8616 22.5493 10.9671 22.5924 11.0763 22.6394C11.4016 22.7804 11.7528 22.9519 12.1576 23.1904C14.5435 24.6013 17.208 25.6947 22.0342 26.001L25.2742 26.4257L27.8449 26.323H27.846C27.846 26.323 30.8117 26.1449 34.3355 24.8701C34.5441 24.7954 34.7463 24.7118 34.9448 24.6227C34.9852 24.605 35.0244 24.5873 35.0637 24.5687C35.125 24.54 35.1855 24.5104 35.2445 24.4809C35.2909 24.4576 35.3375 24.4343 35.3828 24.41C35.4651 24.3683 35.5452 24.3247 35.6238 24.2793C35.6607 24.2589 35.6963 24.2385 35.732 24.2171C36.05 24.032 36.3518 23.8279 36.6344 23.6069C36.6696 23.5795 36.7045 23.5519 36.7395 23.5235C36.8096 23.4676 36.8772 23.4109 36.9448 23.352C36.9786 23.3227 37.0124 23.2932 37.045 23.2639C37.1115 23.2042 37.1755 23.1446 37.2396 23.083C37.3037 23.0215 37.3665 22.9589 37.4271 22.8966C37.4725 22.8497 37.518 22.8022 37.5621 22.7534C37.6215 22.6891 37.6796 22.6231 37.7365 22.5568C37.7606 22.5302 37.7835 22.5019 37.8064 22.4743C37.9678 22.2799 38.1176 22.0794 38.2555 21.8716C32.9162 24.4312 25.3006 23.2118 20.8751 22.9523C18.3359 22.8043 17.8429 24.827 12.2417 22.4601C10.4677 21.7114 9.65954 21.897 8.23718 21.3371H8.23757Z" fill="#1F3A12"/>
</g>
<path d="M27.8458 26.323C31.4479 25.6036 35.0435 24.5572 38.1793 22.6122C41.4349 20.6322 43.1183 17.3594 42.2036 13.5764C41.6347 11.1795 40.2242 9.06746 38.8007 7.09679C38.1601 5.5643 37.4133 4.00015 36.3536 2.71453C36.0004 2.28761 35.5832 1.96849 35.126 1.66665C34.668 1.36521 34.1826 1.11562 33.6726 0.949357C32.0948 0.418328 30.4283 0.826798 28.9621 1.57342C28.8729 1.6181 28.7743 1.62101 28.687 1.58955C28.4149 1.49748 28.1084 1.41376 27.8217 1.3485C26.3345 1.01015 24.782 0.931682 23.2711 1.14242C22.6678 1.22769 22.0723 1.36229 21.4917 1.54235C21.3851 1.57537 21.2744 1.55478 21.1893 1.49573C20.4986 1.03696 19.6695 0.746385 18.8436 0.695302C16.8933 0.618192 15.8229 1.67112 15.1219 3.3992C14.8764 4.00015 14.6931 4.63587 14.5606 5.27412C14.5169 5.48583 14.4769 5.70764 14.4499 5.91061C14.4382 5.99744 14.3965 6.0728 14.3364 6.12738C13.9122 6.5172 13.5011 6.97325 13.1411 7.43145C12.4229 8.35152 11.8099 9.39474 11.5409 10.53C11.3931 11.1238 11.423 11.7529 11.2674 12.3389C11.1208 12.963 10.903 13.5542 10.6593 14.1293C9.91302 15.8399 8.94982 17.4258 7.87786 18.9503C7.87767 18.9507 7.93885 18.8066 7.93885 18.8066C7.87436 19.4256 7.92098 20.1517 8.22417 20.6914C8.36791 20.9507 8.57865 21.1522 8.84222 21.2794C9.15241 21.4423 9.46745 21.5894 9.79551 21.7201C10.5575 22.0142 11.375 22.2989 12.0931 22.7192C13.8497 23.8149 15.7338 24.6858 17.7534 25.1964C19.1584 25.5727 20.5923 25.8013 22.0344 26.0006C19.8309 26.0066 17.6141 25.7611 15.5046 25.0954C14.1865 24.6839 12.9246 24.0631 11.7271 23.379C10.6736 22.7938 9.46648 22.5419 8.40869 21.9433C7.45987 21.4388 7.13551 20.2783 7.19106 19.2842C7.20368 19.0762 7.2165 18.8979 7.25632 18.6866C7.26525 18.6334 7.28584 18.5831 7.3175 18.5429C8.0113 17.5659 8.65906 16.5296 9.23263 15.4746C9.79221 14.4294 10.3162 13.3295 10.5926 12.1818C10.7443 11.5804 10.7121 10.9661 10.8665 10.3713C11.3313 8.50399 12.5021 6.91537 13.8769 5.60858L13.7623 5.82651C13.9738 4.43873 14.3679 3.07328 15.1322 1.88089C16.4695 -0.269057 19.2084 -0.465231 21.2742 0.732012C21.3869 0.799799 21.4799 0.850882 21.5916 0.931294L21.2843 0.881376C23.444 0.206616 25.778 0.174179 27.9777 0.673354C28.3021 0.750852 28.6031 0.826409 28.925 0.938675L28.65 0.954795C30.9423 -0.221083 33.3002 -0.408127 35.5069 1.08746C35.7577 1.25352 35.9921 1.42231 36.2296 1.61499C36.926 2.19807 37.4387 2.95732 37.9016 3.71327C38.5029 4.71978 39.0035 5.75737 39.4459 6.8439C39.4461 6.84428 39.3917 6.75125 39.3919 6.75125C40.1964 7.72998 40.9046 8.76485 41.5397 9.86031C42.5103 11.513 43.2198 13.3674 43.2832 15.3054C43.4238 18.761 41.4857 21.5542 38.5839 23.2687C35.3507 25.1813 31.6155 26.3467 27.846 26.3228L27.8458 26.323Z" fill="#1F3A12"/>
<path d="M11.7938 22.3428C13.067 22.4564 14.2924 22.9731 15.5352 23.192C16.4509 23.3577 17.3927 23.3507 18.3126 23.1877C18.6241 23.1341 18.9324 23.0545 19.2484 22.969C18.1778 23.7576 16.7309 23.9563 15.4393 23.6993C14.1407 23.4412 13.0011 22.8389 11.7938 22.343V22.3428Z" fill="#1F3A12"/>
<path d="M20.6676 19.8586C20.6194 19.8586 20.5728 19.8386 20.5394 19.8019C20.4959 19.7539 20.4827 19.6859 20.505 19.6251C20.7024 19.0925 20.8139 18.429 20.9036 17.8959C20.9924 17.3683 21.0565 16.9871 21.1753 16.8C21.2849 16.6275 21.4727 16.5642 21.69 16.6264C22.4033 16.8303 23.5183 18.3853 23.5253 19.186C23.5261 19.2776 23.4552 19.3542 23.3637 19.3604C22.3716 19.4266 21.6075 19.6142 20.7121 19.8526C20.6973 19.8564 20.6824 19.8584 20.6676 19.8584V19.8586ZM21.5323 16.949C21.4915 16.949 21.4787 16.969 21.4678 16.9861C21.3865 17.1139 21.3179 17.5216 21.2453 17.9534C21.1695 18.4038 21.0786 18.9451 20.9323 19.4365C21.6663 19.2462 22.3384 19.0966 23.1612 19.0282C23.0196 18.309 22.07 17.0954 21.5951 16.9595C21.5688 16.9519 21.5484 16.9488 21.5323 16.9488V16.949Z" fill="#16260E"/>
<path d="M28.6833 18.196C28.6592 18.196 28.6353 18.1909 28.6128 18.181C28.5623 18.1585 28.5256 18.1132 28.5139 18.0592C28.4061 17.5571 28.2073 17.0236 28.0317 16.5528C27.825 15.9988 27.7087 15.6754 27.7203 15.4697C27.7292 15.3126 27.8143 15.1916 27.96 15.1294C28.518 14.8905 29.9728 15.5917 30.6433 16.1631C30.7086 16.2187 30.7233 16.3135 30.6783 16.3863C30.2366 17.0982 29.5945 17.6993 28.7696 18.173C28.7429 18.1884 28.713 18.196 28.6833 18.196ZM28.2374 15.4252C28.1797 15.4252 28.1319 15.4324 28.0963 15.4478C28.0707 15.4586 28.0676 15.4658 28.0662 15.4891C28.0581 15.6325 28.2096 16.0388 28.356 16.4316C28.5093 16.8424 28.6798 17.3 28.7971 17.7525C29.4274 17.3582 29.9322 16.8814 30.3015 16.3313C29.6477 15.8244 28.666 15.4252 28.2374 15.4252Z" fill="#16260E"/>
<path d="M4.9467 18.7866C5.57601 20.5085 6.61981 21.6121 7.14404 21.6325C7.88193 21.6612 8.00429 19.0875 8.22883 18.5963" fill="white"/>
<path d="M7.15976 21.9794C7.15025 21.9794 7.14054 21.9794 7.13082 21.9788C6.34224 21.9479 5.23998 20.598 4.62155 18.9057C4.5559 18.726 4.64835 18.5271 4.82801 18.4613C5.00748 18.3956 5.20657 18.4879 5.27242 18.6677C5.88794 20.3521 6.85443 21.2551 7.14831 21.2856C7.39517 21.145 7.61077 19.8974 7.69235 19.4253C7.77878 18.9249 7.83161 18.633 7.91435 18.4523C7.99379 18.2783 8.19929 18.2018 8.37352 18.2812C8.54755 18.3609 8.62408 18.5664 8.54444 18.7404C8.4953 18.8482 8.4314 19.2174 8.37507 19.5432C8.17773 20.686 7.95437 21.9794 7.16015 21.9794H7.15976Z" fill="#1F3A12"/>
<path d="M17.9379 19.332C17.7172 21.5169 16.9149 22.5427 16.4508 22.6069C15.8029 22.6969 15.0341 20.2138 14.6697 19.805" fill="white"/>
<path d="M16.412 22.9562C15.7726 22.9562 15.32 21.9534 14.842 20.8944C14.6892 20.5557 14.499 20.1342 14.411 20.0355C14.2836 19.8926 14.2962 19.6737 14.4392 19.5463C14.5817 19.419 14.801 19.4315 14.9283 19.5744C15.0794 19.7442 15.2266 20.0619 15.4737 20.6093C15.6819 21.0706 16.1645 22.1404 16.4211 22.2597C16.6449 22.1917 17.3808 21.3977 17.5931 19.2971C17.6123 19.1067 17.7811 18.9684 17.9726 18.9873C18.163 19.0065 18.3017 19.1764 18.2826 19.3668C18.0583 21.588 17.2151 22.8507 16.4984 22.9502C16.4693 22.9543 16.4405 22.9562 16.412 22.9562Z" fill="#1F3A12"/>
<path d="M27.7763 18.0165C27.7516 20.1078 27.2081 21.2114 26.7439 21.2757C26.096 21.3656 24.8725 18.8983 24.5081 18.4894" fill="white"/>
<path d="M26.7084 21.6247C26.0991 21.6247 25.4896 20.7068 24.7059 19.4241C24.5227 19.1244 24.3336 18.8144 24.2495 18.7202C24.122 18.5772 24.1347 18.3583 24.2776 18.2309C24.4204 18.1037 24.6395 18.1161 24.7667 18.2591C24.8865 18.3935 25.0386 18.6394 25.2971 19.0628C25.5955 19.5511 26.3823 20.8391 26.7057 20.9298C26.8716 20.8655 27.4055 20.0681 27.4296 18.0126C27.4319 17.8213 27.5897 17.6717 27.7802 17.6702C27.9715 17.6725 28.1248 17.8294 28.1226 18.0208C28.0983 20.0979 27.5757 21.5103 26.7914 21.6191C26.7636 21.623 26.736 21.6249 26.7082 21.6249L26.7084 21.6247Z" fill="#1F3A12"/>
<path d="M28.4767 10.9334C27.7409 9.87876 26.38 8.52225 23.2519 7.662C19.308 6.57721 13.7594 7.15292 11.2959 9.56547C9.8394 9.10727 6.89815 8.64481 4.48754 10.9072C2.00352 13.2388 3.15745 18.0421 5.1289 19.1197C6.74471 20.0029 8.08277 19.1314 8.89737 18.8699C9.8662 18.5588 10.8647 18.6747 12.3036 19.5865C14.1012 20.7258 16.0037 20.7359 18.3939 20.2451C20.7842 19.7541 21.8289 19.1768 24.0814 19.1611C26.3339 19.1454 29.4282 18.3721 30.6707 16.0545C31.913 13.737 33.1954 13.8019 33.1954 13.8019L28.4767 10.9336V10.9334Z" fill="#49AF08"/>
<g opacity="0.5">
<path d="M4.97467 11.441C4.97467 11.441 7.19338 8.74445 11.239 10.4537C12.4639 10.1767 16.729 9.36385 18.6464 11.5882C18.6464 11.5882 15.2 9.9211 11.1978 11.0948C11.1978 11.0948 8.02624 9.3959 4.97467 11.441Z" fill="white"/>
</g>
<g opacity="0.3">
<path d="M33.1948 13.802C33.1536 13.8005 31.8926 13.7745 30.6705 16.0542C29.4286 18.3725 26.3339 19.1452 24.0816 19.1609C21.8291 19.1766 20.7841 19.7541 18.3939 20.2451C16.0037 20.7361 14.1012 20.7256 12.3042 19.5867C10.8655 18.6745 9.86677 18.5586 8.89756 18.8695C8.08353 19.131 6.7447 20.0025 5.12908 19.1193C3.9163 18.4574 3.0137 16.3861 3.07508 14.3467C3.30932 15.9518 4.08431 17.3949 5.05896 17.9279C6.67458 18.8109 8.01245 17.9396 8.82744 17.6781C9.79588 17.3672 10.7944 17.4831 12.2333 18.3952C14.0313 19.5342 15.933 19.5445 18.324 19.0537C20.7142 18.5627 21.7582 17.9852 24.0107 17.9695C26.2632 17.9537 29.3577 17.1809 30.6006 14.8627C31.091 13.9471 33.195 13.8022 33.195 13.8022L33.1948 13.802Z" fill="#1F3A12"/>
</g>
<path d="M11.4171 9.24071C11.3355 9.21352 11.3293 9.2244 11.3122 9.21993L11.3375 9.21449L11.4191 9.19565C13.4231 8.65782 15.5937 8.55274 17.5607 9.33278C19.1493 9.95354 20.3883 11.2568 20.4798 13.021C20.518 13.5494 20.4518 14.086 20.3191 14.5959C20.3079 13.5882 20.1397 12.5543 19.5758 11.7226C17.9915 9.44174 14.6278 9.35686 12.1317 9.78961C11.9551 9.82069 11.6242 9.8809 11.4474 9.90596C11.3419 9.91392 11.3177 9.9314 11.1749 9.88984C10.9956 9.82283 10.9045 9.62335 10.9713 9.44407C11.0382 9.2648 11.2378 9.1737 11.4171 9.24052V9.24071Z" fill="#1F3A12"/>
<path d="M7.73783 13.8887C7.73783 13.8887 7.32197 12.2249 6.42696 12.2626C5.80425 12.2888 5.5737 13.029 5.75317 13.5731C5.93264 14.1171 6.47493 14.2014 6.78162 14.0033C7.16193 13.7576 7.1796 13.2302 7.73783 13.8885V13.8887Z" fill="#1F3A12"/>
<path d="M14.647 14.4181C14.647 14.4181 15.2742 12.7915 16.1601 12.8926C16.7766 12.963 16.9114 13.7164 16.6629 14.2451C16.4145 14.774 15.8639 14.8192 15.5842 14.6003C15.2371 14.3288 15.287 13.8024 14.647 14.4181Z" fill="#1F3A12"/>
<path d="M23.3523 19.1877C22.3328 19.2559 21.5493 19.4507 20.6676 19.6853C21.048 18.6592 21.1068 17.2306 21.3216 16.893C21.7171 16.2705 23.3444 18.2896 23.3523 19.1875V19.1877Z" fill="white"/>
<path d="M20.6676 20.0318C20.5713 20.0318 20.4778 19.9916 20.4112 19.9184C20.3242 19.8227 20.2978 19.6863 20.3426 19.5649C20.5344 19.0475 20.6445 18.3931 20.7329 17.8671C20.8341 17.2646 20.898 16.9137 21.0293 16.707C21.1806 16.4689 21.4455 16.3762 21.7378 16.4599C22.5182 16.6831 23.691 18.3127 23.6988 19.1846C23.7003 19.3682 23.5585 19.5212 23.3754 19.5334C22.3988 19.5987 21.643 19.7844 20.7566 20.0202C20.7272 20.028 20.6971 20.0318 20.6674 20.0318H20.6676ZM21.5884 17.1362C21.5315 17.2963 21.4684 17.6721 21.4162 17.9819C21.3542 18.3506 21.2821 18.7792 21.1778 19.1953C21.7516 19.0529 22.3048 18.9393 22.9426 18.8744C22.7142 18.2066 21.927 17.2621 21.5883 17.1362H21.5884Z" fill="#1F3A12"/>
<path d="M30.5313 16.2948C30.076 17.0286 29.4271 17.5956 28.6833 18.0227C28.4644 17.003 27.8728 15.8419 27.8934 15.4794C27.9272 14.8808 29.6982 15.5853 30.5313 16.2948Z" fill="white"/>
<path d="M28.6833 18.3692C28.6353 18.3692 28.5874 18.3593 28.5423 18.3393C28.4411 18.2942 28.3677 18.2037 28.3444 18.0955C28.2393 17.6059 28.0425 17.0785 27.8691 16.6133C27.6483 16.0211 27.5335 15.7008 27.5473 15.4598C27.5599 15.2368 27.6854 15.0583 27.8916 14.97C28.5594 14.684 30.1255 15.4946 30.7556 16.031C30.8859 16.1421 30.9156 16.3319 30.8253 16.4774C30.3683 17.2137 29.7057 17.8349 28.8556 18.323C28.8024 18.3535 28.7427 18.369 28.6829 18.369L28.6833 18.3692ZM28.2539 15.596C28.2952 15.7723 28.4168 16.0986 28.5186 16.3711C28.6416 16.7008 28.7859 17.0879 28.9007 17.4779C29.3695 17.1574 29.7586 16.7866 30.0627 16.3702C29.4352 15.9275 28.5835 15.5995 28.2541 15.596H28.2539Z" fill="#1F3A12"/>
<path d="M27.0699 2.6854C27.5302 2.06172 28.0036 1.48485 28.6074 0.979852C28.7556 0.857875 28.9747 0.879241 29.0967 1.02744C29.2327 1.18962 29.1872 1.44251 29.0042 1.54798C28.5573 1.81116 28.1234 2.17049 27.7309 2.52827C27.5959 2.65199 27.4611 2.78077 27.334 2.90896C27.1839 3.05832 26.9473 2.85691 27.0699 2.68521V2.6854Z" fill="#1F3A12"/>
<path d="M21.625 0.95926C21.9099 1.31412 22.1799 1.65713 22.4171 2.05103C22.4658 2.13397 22.4382 2.2408 22.3553 2.28975C22.284 2.3317 22.1953 2.31713 22.1407 2.26003C21.9946 2.11766 21.8293 1.9815 21.6623 1.84923C21.4962 1.71832 21.322 1.58682 21.1509 1.46465C20.7379 1.13717 21.2717 0.568078 21.625 0.959454V0.95926Z" fill="#1F3A12"/>
<path d="M30.3129 4.19749C31.7576 4.22119 32.8572 5.76183 32.7688 7.63869C32.6804 9.51555 31.4375 11.0179 29.9928 10.9944C28.5481 10.9707 27.4486 9.43009 27.537 7.55323C27.6253 5.67637 28.8682 4.17399 30.3129 4.19749Z" fill="#1F3A12"/>
<path d="M30.2932 4.98567C30.7209 5.20457 30.8189 5.85739 30.5121 6.44338C30.2052 7.02957 29.6097 7.32714 29.182 7.10804C28.7543 6.88914 28.6562 6.23633 28.9631 5.65033C29.27 5.06414 29.8655 4.76658 30.2932 4.98567Z" fill="white"/>
<path d="M31.2051 9.13971C31.398 9.30558 31.3704 9.65656 31.1435 9.92382C30.9166 10.1909 30.5762 10.273 30.3833 10.1072C30.1904 9.9413 30.218 9.59033 30.4449 9.32326C30.6717 9.05619 31.0122 8.97403 31.2049 9.1399L31.2051 9.13971Z" fill="#B199C5"/>
<path d="M18.7098 2.97577C19.6374 3.13873 20.1488 4.24974 19.8524 5.45708C19.5561 6.66462 18.5637 7.51147 17.6361 7.34851C16.7086 7.18555 16.1968 6.07454 16.4934 4.8672C16.7898 3.65966 17.7821 2.81281 18.7098 2.97577Z" fill="#1F3A12"/>
<path d="M18.5963 3.48446C18.8439 3.67015 18.8237 4.10309 18.5512 4.45174C18.2787 4.80019 17.8572 4.93227 17.6096 4.74658C17.362 4.56089 17.3822 4.12795 17.6547 3.77931C17.9272 3.43066 18.3487 3.29878 18.5963 3.48427V3.48446Z" fill="white"/>
<path d="M18.6544 6.27023C18.7576 6.39759 18.695 6.62256 18.5146 6.77267C18.3341 6.92278 18.1041 6.94125 18.0011 6.81389C17.8978 6.68653 17.9604 6.46156 18.1411 6.31145C18.3215 6.16134 18.5515 6.14287 18.6546 6.27023H18.6544Z" fill="#B199C5"/>
<path d="M28.4767 10.9335C25.174 6.95268 15.3 6.25558 11.5383 9.81273C11.4437 9.90499 11.3099 9.93258 11.192 9.89567C9.41129 9.33318 7.37399 9.38465 5.75974 10.3741C3.99262 11.4109 3.29105 13.0129 3.43867 15.0414C3.58959 16.7421 4.38205 18.9482 6.31757 19.1448C7.12149 19.2423 7.90658 18.8826 8.65456 18.5871C9.82966 18.1278 11.0786 18.4535 12.1214 19.0731C12.5355 19.3161 12.9343 19.5816 13.381 19.7584C16.1486 20.8754 19.1019 19.6387 21.8594 19.0255C22.3564 18.9239 22.864 18.8501 23.3719 18.8146C23.866 18.7765 24.3508 18.7913 24.8414 18.7418C26.9995 18.5341 29.3901 17.7325 30.4497 15.7096C30.9075 14.9274 31.5156 14.1447 32.4099 13.8489C32.6635 13.7696 32.9424 13.7269 33.1957 13.8015C32.963 13.8834 32.7639 14.019 32.575 14.1668C31.8514 14.7672 31.3315 15.5692 30.8982 16.3954C30.5085 17.091 29.9252 17.6735 29.2744 18.1179C27.9831 18.9867 26.4392 19.3885 24.904 19.5076C24.4124 19.5498 23.9087 19.5282 23.4193 19.5566C22.4514 19.6003 21.5263 19.8217 20.5866 20.0742C17.9631 20.7623 14.9315 21.5214 12.4137 20.055C11.3447 19.3804 10.1678 18.741 8.89172 19.2382C8.05322 19.5762 7.19142 19.9452 6.24415 19.8335C5.09877 19.7147 4.19442 19.0263 3.64417 18.0515C2.62426 16.2614 2.38749 13.9302 3.25415 12.0344C3.69253 11.0706 4.50694 10.322 5.40235 9.7803C7.18947 8.68483 9.44178 8.61452 11.4 9.23451L11.0537 9.31744C12.8645 7.61889 15.3915 7.05115 17.7844 6.82137C20.1816 6.61801 22.6536 6.89713 24.8671 7.87158C26.3256 8.50264 27.7174 9.51614 28.4769 10.9329L28.4767 10.9335Z" fill="#1F3A12"/>
<path d="M44.5478 25.7628C44.5478 25.7628 42.8586 32.823 34.6399 35.8483C33.4671 35.3542 32.7137 34.2529 32.3205 32.9844C31.7518 31.145 31.9393 28.9556 32.7028 27.7556C37.5726 28.3607 40.4596 23.7158 40.4596 23.7158L43.5716 23.9547L44.1444 23.999L44.5478 25.7628Z" fill="#49AF08"/>
<g opacity="0.7">
<path d="M44.3501 24.8966L41.0062 24.4135C41.0062 24.4135 38.2601 28.2344 34.0177 28.047C33.922 27.9683 33.814 27.8877 33.704 27.8079C37.9647 27.7283 40.4596 23.7156 40.4596 23.7156L44.1444 23.999L44.3501 24.8966Z" fill="#F7F7F7"/>
</g>
<path d="M32.7088 27.7053C35.6314 27.6941 37.9807 26.1218 39.7845 23.9238C39.8948 23.789 40.017 23.6377 40.1168 23.5026C40.1986 23.3709 40.3456 23.3021 40.4905 23.3132L44.1753 23.5968C44.3555 23.6107 44.4991 23.7417 44.5375 23.9091C44.5391 23.9809 45.0111 25.8221 44.9444 25.8368C44.8714 26.1645 44.7776 26.4716 44.6681 26.7853C43.0756 31.1811 39.2346 34.8185 34.6572 35.8953L34.6224 35.8007C34.8906 35.6482 35.1628 35.5113 35.4294 35.3647C35.5734 35.2802 35.8878 35.1081 36.0253 35.0318C36.2161 34.9135 36.4181 34.7956 36.609 34.6839C39.8692 32.7122 42.3983 30.0278 43.8608 26.4809C43.9667 26.2162 44.0737 25.9382 44.1557 25.6684L44.1547 25.8522L43.7513 24.0885L44.1135 24.4009L40.4288 24.1173L40.8023 23.9281C39.3615 26.2896 36.7013 28.1359 33.8589 27.9874C33.4636 27.9699 33.0738 27.9 32.6966 27.8052L32.709 27.7051L32.7088 27.7053Z" fill="#1F3A12"/>
<g opacity="0.25">
<path d="M44.5478 25.7628C44.5478 25.7628 42.8586 32.8229 34.6398 35.8483C33.4671 35.3542 32.7137 34.2529 32.3205 32.9844C34.5804 33.4119 37.7005 31.7904 40.2368 29.7815C43.3125 27.346 41.444 24.586 41.3461 24.4529L43.5718 23.9547L44.1446 23.999L44.548 25.7628H44.5478Z" fill="#1F3A12"/>
</g>
<path d="M46.0523 25.2928C44.8079 26.0662 43.6986 25.9149 42.0014 24.9399C40.3042 23.9658 39.8454 22.8645 39.442 22.1454C39.0386 21.4274 38.7997 20.2556 39.8585 20.4069C40.9174 20.5582 41.5304 21.3095 41.5304 21.3095C41.7916 19.5084 42.0438 18.3274 42.4693 17.8434C42.6781 17.6074 43.0351 17.5944 43.2661 17.8102C44.1636 18.6471 44.2201 20.167 44.2201 20.167C44.7073 19.3592 45.1872 18.9336 45.4838 18.7279C45.4869 18.726 45.4888 18.7239 45.4919 18.7219C45.6947 18.5817 45.9649 18.5867 46.1595 18.7361C46.7766 19.2081 46.6799 20.2851 46.5427 20.9637C46.5418 20.9668 46.5408 20.9698 46.5408 20.9719C46.5155 21.0948 46.4893 21.2048 46.4652 21.2945C46.4602 21.3167 46.4542 21.3369 46.4491 21.3561C46.4491 21.358 46.4491 21.3592 46.4481 21.3611C46.4138 21.4872 46.3887 21.5618 46.3887 21.5618C46.3887 21.5618 47.6322 20.5704 48.3724 20.9567C49.1116 21.344 47.2964 24.5205 46.0531 25.293L46.0523 25.2928Z" fill="#49AF08"/>
<g opacity="0.25">
<path d="M46.0524 25.2928C44.8079 26.0662 43.6987 25.9149 42.0015 24.9399C40.3043 23.9658 39.8455 22.8645 39.4421 22.1455C39.4098 22.088 39.3786 22.0276 39.3492 21.965C39.7293 22.4955 40.2891 23.0733 41.228 23.6129C42.9262 24.5869 44.0355 24.7382 45.2789 23.9658C46.0615 23.4787 47.0719 22.0386 47.5277 20.9426C47.8212 20.8528 48.1248 20.8276 48.3719 20.9568C49.1111 21.344 47.2958 24.5205 46.0526 25.293L46.0524 25.2928Z" fill="#1F3A12"/>
</g>
<g opacity="0.7">
<path d="M41.6101 20.78C41.8451 19.2755 42.0871 18.2781 42.4693 17.8434C42.6721 17.6144 43.014 17.5954 43.2449 17.792C43.2268 17.8071 43.2086 17.8242 43.1925 17.8434C42.7659 18.3275 42.5148 19.5084 42.2535 21.3095C42.2535 21.3095 42.0267 21.0312 41.6103 20.78H41.6101Z" fill="#F7F7F7"/>
</g>
<g opacity="0.7">
<path d="M42.7245 24.9399C43.5333 25.4049 44.2079 25.682 44.8281 25.7617C44.0041 25.8745 43.134 25.5902 42.0014 24.9399C40.3042 23.9658 39.8454 22.8645 39.442 22.1455C39.0386 21.4274 38.7997 20.2556 39.8585 20.4069C39.9441 20.4189 40.0269 20.4351 40.1055 20.4553C39.6205 20.6912 39.8392 21.5655 40.165 22.1455C40.5684 22.8645 41.0262 23.9656 42.7243 24.9399H42.7245Z" fill="#F7F7F7"/>
</g>
<path d="M44.4645 26.1865C43.5953 26.1865 42.735 25.8265 41.8006 25.2899C40.1799 24.3593 39.6001 23.2844 39.2163 22.5734C39.173 22.4929 39.1314 22.4162 39.0907 22.3434C38.7657 21.7646 38.514 20.9024 38.8737 20.3774C38.9947 20.2008 39.2901 19.918 39.9156 20.007C40.4703 20.0862 40.9178 20.3082 41.2414 20.5277C41.4791 19.0453 41.7307 18.0722 42.1667 17.5771C42.3388 17.3817 42.5761 17.2671 42.8351 17.2545C43.0965 17.2413 43.3478 17.3342 43.5413 17.5148C44.0395 17.9798 44.3089 18.6128 44.4542 19.1423C44.763 18.7763 45.0468 18.5392 45.2624 18.3898C45.6104 18.1488 46.0694 18.1591 46.4044 18.4154C47.0946 18.9432 47.1101 19.9526 46.9982 20.7161C47.4762 20.4945 48.0684 20.3434 48.5581 20.5992C48.6958 20.6712 48.9293 20.8563 48.9454 21.2881C48.9864 22.3902 47.4333 24.9094 46.2648 25.6356C45.6438 26.0217 45.052 26.1863 44.4643 26.1865H44.4645ZM39.6827 20.7965C39.6091 20.7965 39.5556 20.8093 39.5393 20.8332C39.4543 20.9575 39.51 21.442 39.7942 21.9483C39.8371 22.0248 39.8808 22.1056 39.9264 22.1901C40.3071 22.8958 40.7809 23.7739 42.2022 24.5901C43.8204 25.5193 44.7721 25.6137 45.839 24.9502C46.3077 24.6588 46.9469 23.9017 47.4673 23.0213C48.0315 22.0666 48.1607 21.4711 48.1391 21.2945C47.7761 21.1689 47.0417 21.5581 46.6391 21.8774C46.4992 21.9883 46.3027 21.9944 46.1566 21.8916C46.0103 21.789 45.949 21.6026 46.0057 21.4332C46.1646 20.9564 46.4893 19.4954 45.9144 19.0558C45.8594 19.0137 45.78 19.0123 45.7215 19.0527C45.491 19.2122 45.0345 19.5958 44.5655 20.3747C44.4734 20.5275 44.2922 20.6017 44.1191 20.557C43.9464 20.5124 43.8235 20.3597 43.8169 20.1814C43.8163 20.1686 43.7526 18.8154 42.9908 18.1043C42.9465 18.0631 42.899 18.0588 42.8743 18.06C42.8465 18.0614 42.8063 18.0711 42.7721 18.1101C42.3825 18.5526 42.137 19.9371 41.9299 21.3674C41.907 21.5257 41.7926 21.6556 41.6384 21.6983C41.485 21.7409 41.3204 21.689 41.2192 21.5659C41.2078 21.5523 40.6764 20.9305 39.8013 20.8055C39.7582 20.7992 39.718 20.7963 39.6827 20.7963V20.7965Z" fill="#1F3A12"/>
<path d="M41.5191 20.9067C42.4817 21.028 43.4861 21.5362 43.8957 22.4518L43.968 22.6209L43.853 22.4786C43.7938 22.3958 43.6764 22.295 43.6032 22.2232C43.0349 21.7578 42.2549 21.6071 41.5426 21.7131L41.5191 20.9067Z" fill="#1F3A12"/>
<g opacity="0.25">
<path d="M46.5423 20.9636C46.5414 20.9667 46.5404 20.9696 46.5404 20.9717C46.5111 21.0846 46.486 21.1935 46.4649 21.2943L46.4617 21.3095C46.4586 21.3246 46.4547 21.3408 46.4485 21.3559C46.4485 21.3579 46.4485 21.359 46.4476 21.361C46.2147 22.0377 44.1554 22.7052 45.1276 21.3891C46.124 20.0408 45.4552 18.9063 45.4552 18.9063L45.4834 18.7278C45.4865 18.7258 45.4884 18.7237 45.4916 18.7217C45.6943 18.5815 45.9645 18.5866 46.1591 18.7359C46.7762 19.2079 46.6795 20.2849 46.5423 20.9636Z" fill="#1F3A12"/>
</g>
<path d="M73.042 40.5038H67.6178L67.6526 37.033H73.042C74.6117 37.033 75.9257 36.69 76.9838 36.0039C78.0535 35.3179 78.8558 34.3354 79.3907 33.0564C79.9372 31.7773 80.2104 30.2541 80.2104 28.4867V27.1089C80.2104 25.7368 80.0534 24.5217 79.7395 23.4636C79.4372 22.4055 78.9837 21.516 78.3791 20.7951C77.7861 20.0742 77.0535 19.5277 76.1815 19.1556C75.321 18.7835 74.3269 18.5975 73.199 18.5975H67.5131V15.1092H73.199C74.885 15.1092 76.4256 15.3941 77.821 15.9638C79.2163 16.5219 80.4197 17.3301 81.4313 18.3882C82.4545 19.4463 83.2394 20.7137 83.7859 22.1904C84.3324 23.6671 84.6056 25.3182 84.6056 27.1437V28.4867C84.6056 30.3122 84.3324 31.9634 83.7859 33.4401C83.2394 34.9168 82.4545 36.1842 81.4313 37.2423C80.4081 38.2888 79.1872 39.0969 77.7686 39.6666C76.3617 40.2248 74.7862 40.5038 73.042 40.5038ZM70.0421 15.1092V40.5038H65.6643V15.1092H70.0421ZM93.0821 21.6323V40.5038H88.8613V21.6323H93.0821ZM88.5823 16.6789C88.5823 16.0394 88.7916 15.5104 89.2102 15.0918C89.6404 14.6615 90.2334 14.4464 90.9892 14.4464C91.7333 14.4464 92.3205 14.6615 92.7508 15.0918C93.181 15.5104 93.3961 16.0394 93.3961 16.6789C93.3961 17.3068 93.181 17.8301 92.7508 18.2486C92.3205 18.6672 91.7333 18.8765 90.9892 18.8765C90.2334 18.8765 89.6404 18.6672 89.2102 18.2486C88.7916 17.8301 88.5823 17.3068 88.5823 16.6789ZM101.855 25.6612V40.5038H97.6518V21.6323H101.611L101.855 25.6612ZM101.105 30.3704L99.7447 30.3529C99.7564 29.0158 99.9424 27.7891 100.303 26.6728C100.675 25.5566 101.187 24.5973 101.838 23.795C102.5 22.9927 103.291 22.3764 104.21 21.9462C105.128 21.5044 106.152 21.2834 107.279 21.2834C108.186 21.2834 109.006 21.4113 109.739 21.6671C110.483 21.9113 111.117 22.3125 111.64 22.8706C112.175 23.4287 112.582 24.1554 112.861 25.0508C113.14 25.9345 113.279 27.0216 113.279 28.3123V40.5038H109.058V28.2949C109.058 27.3879 108.925 26.6728 108.657 26.1496C108.401 25.6147 108.024 25.2368 107.524 25.0159C107.035 24.7833 106.425 24.6671 105.692 24.6671C104.971 24.6671 104.326 24.8182 103.756 25.1205C103.186 25.4229 102.704 25.8356 102.309 26.3589C101.925 26.8821 101.628 27.4867 101.419 28.1728C101.21 28.8588 101.105 29.5913 101.105 30.3704ZM116.768 31.2773V30.8762C116.768 29.5158 116.965 28.2542 117.361 27.0914C117.756 25.917 118.326 24.8996 119.07 24.0392C119.826 23.1671 120.744 22.4927 121.825 22.016C122.918 21.5276 124.151 21.2834 125.523 21.2834C126.907 21.2834 128.139 21.5276 129.221 22.016C130.314 22.4927 131.238 23.1671 131.994 24.0392C132.75 24.8996 133.325 25.917 133.721 27.0914C134.116 28.2542 134.314 29.5158 134.314 30.8762V31.2773C134.314 32.6378 134.116 33.8994 133.721 35.0621C133.325 36.2249 132.75 37.2423 131.994 38.1143C131.238 38.9748 130.319 39.6492 129.238 40.1375C128.157 40.6143 126.93 40.8526 125.558 40.8526C124.174 40.8526 122.936 40.6143 121.843 40.1375C120.762 39.6492 119.843 38.9748 119.087 38.1143C118.331 37.2423 117.756 36.2249 117.361 35.0621C116.965 33.8994 116.768 32.6378 116.768 31.2773ZM120.971 30.8762V31.2773C120.971 32.1261 121.058 32.9285 121.232 33.6842C121.407 34.44 121.68 35.1028 122.052 35.6726C122.424 36.2423 122.901 36.69 123.482 37.0155C124.064 37.3411 124.756 37.5039 125.558 37.5039C126.337 37.5039 127.011 37.3411 127.581 37.0155C128.163 36.69 128.639 36.2423 129.011 35.6726C129.383 35.1028 129.657 34.44 129.831 33.6842C130.017 32.9285 130.11 32.1261 130.11 31.2773V30.8762C130.11 30.039 130.017 29.2483 129.831 28.5042C129.657 27.7484 129.378 27.0798 128.994 26.4984C128.622 25.917 128.145 25.4636 127.564 25.138C126.994 24.8008 126.314 24.6322 125.523 24.6322C124.732 24.6322 124.046 24.8008 123.465 25.138C122.895 25.4636 122.424 25.917 122.052 26.4984C121.68 27.0798 121.407 27.7484 121.232 28.5042C121.058 29.2483 120.971 30.039 120.971 30.8762ZM142.964 36.3179L147.325 21.6323H150.011L149.278 26.0275L144.883 40.5038H142.476L142.964 36.3179ZM140.401 21.6323L143.802 36.3877L144.081 40.5038H141.395L136.284 21.6323H140.401ZM154.092 36.2132L157.388 21.6323H161.487L156.394 40.5038H153.708L154.092 36.2132ZM150.464 21.6323L154.772 36.1435L155.313 40.5038H152.906L148.458 26.01L147.726 21.6323H150.464ZM163.545 31.2773V30.8762C163.545 29.5158 163.743 28.2542 164.138 27.0914C164.534 25.917 165.103 24.8996 165.847 24.0392C166.603 23.1671 167.522 22.4927 168.603 22.016C169.696 21.5276 170.929 21.2834 172.301 21.2834C173.684 21.2834 174.917 21.5276 175.998 22.016C177.091 22.4927 178.016 23.1671 178.772 24.0392C179.527 24.8996 180.103 25.917 180.498 27.0914C180.894 28.2542 181.091 29.5158 181.091 30.8762V31.2773C181.091 32.6378 180.894 33.8994 180.498 35.0621C180.103 36.2249 179.527 37.2423 178.772 38.1143C178.016 38.9748 177.097 39.6492 176.016 40.1375C174.934 40.6143 173.708 40.8526 172.336 40.8526C170.952 40.8526 169.714 40.6143 168.621 40.1375C167.539 39.6492 166.621 38.9748 165.865 38.1143C165.109 37.2423 164.534 36.2249 164.138 35.0621C163.743 33.8994 163.545 32.6378 163.545 31.2773ZM167.749 30.8762V31.2773C167.749 32.1261 167.836 32.9285 168.01 33.6842C168.185 34.44 168.458 35.1028 168.83 35.6726C169.202 36.2423 169.679 36.69 170.26 37.0155C170.842 37.3411 171.533 37.5039 172.336 37.5039C173.115 37.5039 173.789 37.3411 174.359 37.0155C174.94 36.69 175.417 36.2423 175.789 35.6726C176.161 35.1028 176.434 34.44 176.609 33.6842C176.795 32.9285 176.888 32.1261 176.888 31.2773V30.8762C176.888 30.039 176.795 29.2483 176.609 28.5042C176.434 27.7484 176.155 27.0798 175.772 26.4984C175.4 25.917 174.923 25.4636 174.341 25.138C173.772 24.8008 173.091 24.6322 172.301 24.6322C171.51 24.6322 170.824 24.8008 170.243 25.138C169.673 25.4636 169.202 25.917 168.83 26.4984C168.458 27.0798 168.185 27.7484 168.01 28.5042C167.836 29.2483 167.749 30.039 167.749 30.8762ZM188.835 25.2252V40.5038H184.632V21.6323H188.643L188.835 25.2252ZM194.608 21.5102L194.573 25.417C194.318 25.3705 194.039 25.3356 193.736 25.3124C193.446 25.2891 193.155 25.2775 192.864 25.2775C192.143 25.2775 191.51 25.3822 190.963 25.5915C190.417 25.7891 189.957 26.0798 189.585 26.4635C189.225 26.8356 188.946 27.2891 188.748 27.8239C188.55 28.3588 188.434 28.9576 188.399 29.6204L187.44 29.6902C187.44 28.5042 187.556 27.4054 187.789 26.3938C188.021 25.3822 188.37 24.4926 188.835 23.7252C189.312 22.9578 189.905 22.359 190.614 21.9288C191.335 21.4985 192.166 21.2834 193.108 21.2834C193.364 21.2834 193.637 21.3067 193.928 21.3532C194.23 21.3997 194.457 21.452 194.608 21.5102ZM208.404 36.597V13.7139H212.625V40.5038H208.806L208.404 36.597ZM196.126 31.2773V30.9111C196.126 29.4809 196.294 28.1786 196.631 27.0042C196.969 25.8182 197.457 24.8008 198.097 23.952C198.736 23.0915 199.515 22.4346 200.434 21.9811C201.352 21.516 202.387 21.2834 203.538 21.2834C204.678 21.2834 205.678 21.5044 206.538 21.9462C207.399 22.3881 208.131 23.0218 208.736 23.8473C209.34 24.6612 209.823 25.638 210.183 26.7775C210.544 27.9053 210.8 29.1611 210.951 30.5448V31.7134C210.8 33.0622 210.544 34.2947 210.183 35.4109C209.823 36.5272 209.34 37.4923 208.736 38.3062C208.131 39.1201 207.393 39.748 206.521 40.1899C205.66 40.6317 204.654 40.8526 203.503 40.8526C202.364 40.8526 201.335 40.6143 200.416 40.1375C199.509 39.6608 198.736 38.9922 198.097 38.1318C197.457 37.2713 196.969 36.2598 196.631 35.097C196.294 33.9226 196.126 32.6494 196.126 31.2773ZM200.329 30.9111V31.2773C200.329 32.1378 200.405 32.9401 200.556 33.6842C200.719 34.4284 200.969 35.0854 201.306 35.6551C201.643 36.2132 202.079 36.6551 202.614 36.9807C203.16 37.2946 203.811 37.4516 204.567 37.4516C205.521 37.4516 206.306 37.2423 206.922 36.8237C207.538 36.4051 208.021 35.8412 208.37 35.1319C208.73 34.411 208.974 33.6087 209.102 32.725V29.5681C209.032 28.8821 208.887 28.2425 208.666 27.6495C208.457 27.0565 208.172 26.5391 207.811 26.0973C207.451 25.6438 207.003 25.295 206.468 25.0508C205.945 24.795 205.323 24.6671 204.602 24.6671C203.835 24.6671 203.184 24.8298 202.649 25.1554C202.114 25.481 201.672 25.9287 201.323 26.4984C200.986 27.0682 200.736 27.7309 200.573 28.4867C200.41 29.2425 200.329 30.0506 200.329 30.9111ZM227.607 35.3935C227.607 34.9749 227.503 34.597 227.293 34.2598C227.084 33.911 226.683 33.597 226.09 33.318C225.509 33.0389 224.648 32.7831 223.509 32.5506C222.509 32.3296 221.59 32.068 220.753 31.7657C219.927 31.4518 219.218 31.0739 218.625 30.632C218.032 30.1902 217.573 29.6669 217.247 29.0623C216.922 28.4577 216.759 27.76 216.759 26.9693C216.759 26.2019 216.927 25.4752 217.265 24.7892C217.602 24.1031 218.084 23.4985 218.712 22.9753C219.34 22.452 220.102 22.0392 220.997 21.7369C221.904 21.4346 222.916 21.2834 224.032 21.2834C225.613 21.2834 226.968 21.5509 228.096 22.0857C229.235 22.609 230.107 23.3241 230.712 24.231C231.317 25.1264 231.619 26.138 231.619 27.2658H227.415C227.415 26.7658 227.288 26.3007 227.032 25.8705C226.788 25.4287 226.416 25.074 225.916 24.8066C225.416 24.5275 224.788 24.388 224.032 24.388C223.311 24.388 222.712 24.5043 222.235 24.7368C221.77 24.9578 221.421 25.2484 221.189 25.6089C220.968 25.9694 220.858 26.3647 220.858 26.7949C220.858 27.1089 220.916 27.3937 221.032 27.6495C221.16 27.8937 221.369 28.1205 221.66 28.3297C221.951 28.5274 222.346 28.7135 222.846 28.8879C223.357 29.0623 223.997 29.2309 224.764 29.3937C226.206 29.696 227.445 30.0855 228.479 30.5622C229.526 31.0273 230.328 31.632 230.886 32.3761C231.444 33.1087 231.723 34.0389 231.723 35.1668C231.723 36.0039 231.543 36.7714 231.183 37.469C230.834 38.155 230.322 38.7539 229.648 39.2655C228.974 39.7655 228.165 40.155 227.224 40.434C226.293 40.7131 225.247 40.8526 224.084 40.8526C222.375 40.8526 220.927 40.5503 219.741 39.9457C218.555 39.3294 217.654 38.5446 217.038 37.5911C216.433 36.626 216.131 35.626 216.131 34.5912H220.195C220.241 35.3702 220.456 35.9923 220.84 36.4574C221.235 36.9109 221.724 37.2423 222.305 37.4516C222.898 37.6492 223.509 37.7481 224.136 37.7481C224.892 37.7481 225.526 37.6492 226.038 37.4516C226.549 37.2423 226.939 36.9632 227.206 36.6144C227.474 36.2539 227.607 35.847 227.607 35.3935Z" fill="#222221"/>
</svg>
