<svg width="29" height="28" viewBox="0 0 29 28" fill="none" xmlns="http://www.w3.org/2000/svg">
<g clip-path="url(#clip0_11_1113)">
<mask id="mask0_11_1113" style="mask-type:luminance" maskUnits="userSpaceOnUse" x="0" y="0" width="29" height="28">
<path d="M0.914429 -3.8147e-06H28.5298V27.6154H0.914429V-3.8147e-06Z" fill="white"/>
</mask>
<g mask="url(#mask0_11_1113)">
<path d="M11.458 13.3374H16.9768L23.8763 -3.8147e-06H18.3575L11.458 13.3374Z" fill="#006CA2"/>
<path d="M14.9078 6.66867L12.1484 12.004L12.8388 13.3374H16.9768L17.6672 12.004L14.9078 6.66867Z" fill="#2F2F2F"/>
<path d="M17.4191 16.5584H11.9003V13.3374H17.4191V16.5584ZM17.4191 11.9587H11.9003C11.5341 11.9587 11.1829 12.1042 10.9239 12.3632C10.665 12.6221 10.5195 12.9733 10.5195 13.3395V16.5584C10.5195 16.9246 10.665 17.2758 10.9239 17.5348C11.1829 17.7937 11.5341 17.9392 11.9003 17.9392H17.4191C18.1806 17.9392 18.7977 17.3222 18.7977 16.5584V13.3374C18.7977 12.5758 18.1806 11.9587 17.4191 11.9587Z" fill="#FCC21B"/>
<path d="M21.5572 20.6964C21.5572 24.5065 18.4678 27.596 14.6577 27.596C10.8477 27.596 7.75818 24.5087 7.75818 20.6964C7.75818 16.8842 10.8477 13.7969 14.6577 13.7969C18.4699 13.7969 21.5572 16.8864 21.5572 20.6964Z" fill="#FCC21B"/>
<path d="M10.0342 19.0179C9.94361 19.0179 9.853 19.0007 9.7667 18.9618C9.43446 18.8194 9.2748 18.4333 9.40425 18.0989C9.40641 18.0945 9.40857 18.0881 9.40857 18.0838C9.41072 18.073 9.41288 18.0751 9.4172 18.0665C10.0278 16.6124 11.3071 15.538 12.8432 15.182C12.9187 15.1647 12.9986 15.2014 13.0331 15.2726C13.0676 15.3438 13.0482 15.4301 12.9856 15.4797C11.9781 16.2801 11.1734 17.3589 10.6599 18.6015C10.6599 18.6037 10.6577 18.6059 10.6577 18.6059C10.6577 18.6059 10.6577 18.608 10.6556 18.608C10.5844 18.7741 10.4528 18.9036 10.2845 18.9683C10.2047 19.0028 10.1184 19.0179 10.0342 19.0179Z" fill="white"/>
<path d="M17.4386 13.3374H11.9176L5.02026 -3.8147e-06H10.539L17.4386 13.3374Z" fill="#006CA2"/>
<path d="M13.3199 19.2898L13.9606 19.1064V22.6252H13.4666C13.4126 22.6252 13.3717 22.6683 13.3717 22.7201V23.924C13.3717 23.9758 13.4126 24.0189 13.4666 24.0189H16.0232C16.0749 24.0189 16.1181 23.9758 16.1181 23.924V22.7201C16.1181 22.6683 16.0749 22.6252 16.0232 22.6252H15.5291V17.471C15.5291 17.443 15.5162 17.415 15.4924 17.3977C15.4814 17.3888 15.4685 17.3825 15.4547 17.3791C15.4409 17.3758 15.4265 17.3755 15.4126 17.3783L13.2724 17.8378C13.2293 17.8486 13.1969 17.8853 13.1969 17.9306V19.1992C13.1969 19.2272 13.2098 19.2574 13.2336 19.2747C13.2616 19.2919 13.2918 19.2963 13.3199 19.2898Z" fill="#F79329"/>
</g>
</g>
<defs>
<clipPath id="clip0_11_1113">
<rect width="27.6154" height="27.6154" fill="white" transform="translate(0.914429 -3.8147e-06)"/>
</clipPath>
</defs>
</svg>
