<svg width="26" height="27" viewBox="0 0 26 27" fill="none" xmlns="http://www.w3.org/2000/svg">
<path d="M6.12236 16.2655V16.2757C3.89297 16.4198 2.12903 18.2726 2.12903 20.5384C2.12903 22.8042 3.89297 24.6571 6.12236 24.8012V24.8113H10.2604V16.2655H6.12236Z" fill="#D32A2A"/>
<path d="M2.89652 9.61926V9.62713C1.35409 9.7392 0.133667 11.1802 0.133667 12.9424C0.133667 14.7046 1.35404 16.1456 2.89652 16.2577V16.2656H5.75952V9.61926H2.89652Z" fill="#132028"/>
<path d="M7.37727 2.16908V2.17787C5.64827 2.3035 4.28027 3.9188 4.28027 5.89414C4.28027 7.86948 5.64827 9.48478 7.37727 9.61041V9.6192H11.1549V2.16908H7.37727Z" fill="#005877"/>
<path d="M23.292 8.02228V3.7661C23.292 3.6589 23.3346 3.55608 23.4104 3.48028C23.4862 3.40447 23.589 3.36188 23.6962 3.36188H24.5449C24.6521 3.36188 24.7549 3.3193 24.8307 3.24349C24.9065 3.16769 24.9491 3.06487 24.9491 2.95767V2.57325C24.9491 2.46605 24.9065 2.36323 24.8307 2.28743C24.7549 2.21162 24.6521 2.16903 24.5449 2.16903H11.5561C11.4489 2.16903 11.3461 2.21162 11.2702 2.28743C11.1944 2.36323 11.1519 2.46605 11.1519 2.57325V9.21503C11.1519 9.32224 11.1944 9.42505 11.2702 9.50086C11.3461 9.57666 11.4489 9.61925 11.5561 9.61925H24.5449C24.6521 9.61925 24.7549 9.57666 24.8307 9.50086C24.9065 9.42505 24.9491 9.32224 24.9491 9.21503V8.83062C24.9491 8.72341 24.9065 8.6206 24.8307 8.54479C24.7549 8.46899 24.6521 8.4264 24.5449 8.4264H23.6962C23.5891 8.4264 23.4863 8.38383 23.4105 8.30804C23.3347 8.23226 23.2921 8.12947 23.292 8.02228Z" fill="#00B1FF"/>
<path d="M21.2166 10.8554H23.7818C24.0852 10.8554 24.3312 10.6658 24.3312 10.4318V10.0428C24.3312 9.80887 24.0852 9.6192 23.7818 9.6192H5.64767V9.62926C4.13764 9.7556 2.94672 11.1901 2.94672 12.9423C2.94672 14.6946 4.13764 16.1291 5.64767 16.2554V16.2655H23.7818C24.0852 16.2655 24.3312 16.0758 24.3312 15.8419V15.4172C24.3312 15.1833 24.0852 14.9936 23.7818 14.9936H21.2166C20.9132 14.9936 20.6672 14.804 20.6672 14.57V11.2788C20.6672 11.045 20.9132 10.8554 21.2166 10.8554Z" fill="#445056"/>
<path d="M23.0714 14.9937L22.964 14.8945C22.9519 14.8823 22.9423 14.8679 22.9357 14.8521C22.9292 14.8363 22.9258 14.8193 22.9258 14.8022C22.9258 14.785 22.9292 14.768 22.9357 14.7522C22.9423 14.7364 22.9519 14.722 22.964 14.7099L23.0805 14.5934C23.0927 14.5813 23.1023 14.5669 23.1088 14.551C23.1154 14.5352 23.1188 14.5182 23.1188 14.5011C23.1188 14.4839 23.1154 14.467 23.1088 14.4511C23.1023 14.4353 23.0927 14.4209 23.0805 14.4088L22.964 14.2923C22.9519 14.2802 22.9423 14.2658 22.9357 14.2499C22.9292 14.2341 22.9258 14.2171 22.9258 14.2C22.9258 14.1829 22.9292 14.1659 22.9357 14.15C22.9423 14.1342 22.9519 14.1198 22.964 14.1077L23.0805 13.9912C23.0927 13.9791 23.1023 13.9647 23.1088 13.9489C23.1154 13.933 23.1188 13.9161 23.1188 13.8989C23.1188 13.8818 23.1154 13.8648 23.1088 13.849C23.1023 13.8331 23.0927 13.8187 23.0805 13.8066L22.964 13.6901C22.9519 13.678 22.9423 13.6636 22.9357 13.6478C22.9292 13.6319 22.9258 13.615 22.9258 13.5978C22.9258 13.5807 22.9292 13.5637 22.9357 13.5479C22.9423 13.532 22.9519 13.5177 22.964 13.5055L23.0805 13.389C23.0927 13.3769 23.1023 13.3625 23.1088 13.3467C23.1154 13.3309 23.1188 13.3139 23.1188 13.2968C23.1188 13.2796 23.1154 13.2626 23.1088 13.2468C23.1023 13.231 23.0927 13.2166 23.0805 13.2045L22.964 13.088C22.9519 13.0758 22.9423 13.0615 22.9357 13.0456C22.9292 13.0298 22.9258 13.0128 22.9258 12.9957C22.9258 12.9785 22.9292 12.9616 22.9357 12.9457C22.9423 12.9299 22.9519 12.9155 22.964 12.9034L23.0805 12.7869C23.0927 12.7748 23.1023 12.7604 23.1088 12.7445C23.1154 12.7287 23.1188 12.7117 23.1188 12.6946C23.1188 12.6774 23.1154 12.6605 23.1088 12.6446C23.1023 12.6288 23.0927 12.6144 23.0805 12.6023L22.964 12.4858C22.9519 12.4737 22.9423 12.4593 22.9357 12.4435C22.9292 12.4276 22.9258 12.4106 22.9258 12.3935C22.9258 12.3764 22.9292 12.3594 22.9357 12.3436C22.9423 12.3277 22.9519 12.3133 22.964 12.3012L23.0805 12.1847C23.0927 12.1726 23.1023 12.1582 23.1088 12.1424C23.1154 12.1265 23.1188 12.1096 23.1188 12.0924C23.1188 12.0753 23.1154 12.0583 23.1088 12.0425C23.1023 12.0266 23.0927 12.0122 23.0805 12.0001L22.964 11.8836C22.9519 11.8715 22.9423 11.8571 22.9357 11.8413C22.9292 11.8255 22.9258 11.8085 22.9258 11.7913C22.9258 11.7742 22.9292 11.7572 22.9357 11.7414C22.9423 11.7256 22.9519 11.7112 22.964 11.699L23.0805 11.5826C23.0927 11.5704 23.1023 11.556 23.1088 11.5402C23.1154 11.5244 23.1188 11.5074 23.1188 11.4903C23.1188 11.4731 23.1154 11.4561 23.1088 11.4403C23.1023 11.4245 23.0927 11.4101 23.0805 11.398L22.964 11.2815C22.9519 11.2694 22.9423 11.255 22.9357 11.2391C22.9292 11.2233 22.9258 11.2063 22.9258 11.1892C22.9258 11.172 22.9292 11.1551 22.9357 11.1392C22.9423 11.1234 22.9519 11.109 22.964 11.0969L23.0805 10.9804C23.1315 10.9294 23.1315 10.9042 23.0805 10.8532L22.8718 10.8551H6.39315C6.24156 10.8052 6.08301 10.7796 5.92342 10.7794C4.9499 10.7794 4.16071 11.7151 4.16071 12.8693C4.16071 14.0235 4.9499 14.9592 5.92342 14.9592V15.0016H22.8718" fill="#DCE2E2"/>
<path d="M11.1518 2.16908C9.09452 2.16908 7.42676 3.83684 7.42676 5.89414C7.42676 7.95144 9.09452 9.6192 11.1518 9.6192H13.0144V2.16908H11.1518Z" fill="#0074A8"/>
<path d="M24.3229 4.20511C24.335 4.19299 24.3446 4.1786 24.3512 4.16276C24.3577 4.14693 24.3611 4.12995 24.3611 4.11281C24.3611 4.09567 24.3577 4.0787 24.3512 4.06286C24.3446 4.04703 24.335 4.03264 24.3229 4.02052L24.2064 3.90403C24.1943 3.89191 24.1846 3.87752 24.1781 3.86168C24.1715 3.84585 24.1681 3.82887 24.1681 3.81173C24.1681 3.79459 24.1715 3.77762 24.1781 3.76178C24.1846 3.74594 24.1943 3.73156 24.2064 3.71944L24.3229 3.60294C24.3739 3.55196 24.382 3.41287 24.3311 3.36189H11.3269C9.92842 3.36189 8.79468 4.49563 8.79468 5.89414C8.79468 7.29266 9.92842 8.4264 11.3269 8.4264H24.3234C24.3744 8.37542 24.3739 8.28655 24.3229 8.23556L24.2064 8.11907C24.1943 8.10695 24.1847 8.09256 24.1781 8.07673C24.1716 8.06089 24.1682 8.04392 24.1682 8.02678C24.1682 8.00964 24.1716 7.99266 24.1781 7.97683C24.1847 7.96099 24.1943 7.9466 24.2064 7.93448L24.3229 7.81799C24.335 7.80587 24.3447 7.79148 24.3512 7.77565C24.3578 7.75981 24.3612 7.74284 24.3612 7.7257C24.3612 7.70855 24.3578 7.69158 24.3512 7.67574C24.3447 7.65991 24.335 7.64552 24.3229 7.6334L24.2064 7.51691C24.1943 7.50479 24.1847 7.4904 24.1781 7.47456C24.1716 7.45873 24.1682 7.44175 24.1682 7.42461C24.1682 7.40747 24.1716 7.3905 24.1781 7.37466C24.1847 7.35883 24.1943 7.34444 24.2064 7.33232L24.3229 7.21583C24.335 7.20371 24.3447 7.18932 24.3512 7.17348C24.3578 7.15765 24.3612 7.14067 24.3612 7.12353C24.3612 7.10639 24.3578 7.08942 24.3512 7.07358C24.3447 7.05774 24.335 7.04336 24.3229 7.03124L24.2064 6.91474C24.1943 6.90263 24.1847 6.88824 24.1781 6.8724C24.1716 6.85656 24.1682 6.83959 24.1682 6.82245C24.1682 6.80531 24.1716 6.78833 24.1781 6.7725C24.1847 6.75666 24.1943 6.74227 24.2064 6.73015L24.3229 6.61366C24.335 6.60154 24.3447 6.58715 24.3512 6.57132C24.3578 6.55548 24.3612 6.53851 24.3612 6.52137C24.3612 6.50423 24.3578 6.48725 24.3512 6.47142C24.3447 6.45558 24.335 6.44119 24.3229 6.42907L24.2064 6.31258C24.1943 6.30046 24.1847 6.28607 24.1781 6.27024C24.1716 6.2544 24.1682 6.23743 24.1682 6.22029C24.1682 6.20314 24.1716 6.18617 24.1781 6.17033C24.1847 6.1545 24.1943 6.14011 24.2064 6.12799L24.3229 6.0115C24.335 5.99938 24.3447 5.98499 24.3512 5.96915C24.3578 5.95332 24.3612 5.93634 24.3612 5.9192C24.3612 5.90206 24.3578 5.88509 24.3512 5.86925C24.3447 5.85342 24.335 5.83903 24.3229 5.82691L24.2064 5.71042C24.1943 5.6983 24.1847 5.68391 24.1781 5.66807C24.1716 5.65224 24.1682 5.63526 24.1682 5.61812C24.1682 5.60098 24.1716 5.58401 24.1781 5.56817C24.1847 5.55233 24.1943 5.53795 24.2064 5.52583L24.3229 5.40933C24.335 5.39721 24.3447 5.38283 24.3512 5.36699C24.3578 5.35115 24.3612 5.33418 24.3612 5.31704C24.3612 5.2999 24.3578 5.28292 24.3512 5.26709C24.3447 5.25125 24.335 5.23686 24.3229 5.22474L24.2064 5.10825C24.1943 5.09613 24.1847 5.08174 24.1781 5.06591C24.1716 5.05007 24.1682 5.0331 24.1682 5.01596C24.1682 4.99882 24.1716 4.98184 24.1781 4.96601C24.1847 4.95017 24.1943 4.93578 24.2064 4.92366L24.3229 4.80717C24.335 4.79505 24.3447 4.78066 24.3512 4.76483C24.3578 4.74899 24.3612 4.73202 24.3612 4.71488C24.3612 4.69773 24.3578 4.68076 24.3512 4.66492C24.3447 4.64909 24.335 4.6347 24.3229 4.62258L24.2064 4.50609C24.1943 4.49397 24.1847 4.47958 24.1781 4.46374C24.1716 4.44791 24.1682 4.43093 24.1682 4.41379C24.1682 4.39665 24.1716 4.37968 24.1781 4.36384C24.1847 4.34801 24.1943 4.33362 24.2064 4.3215L24.3229 4.20511Z" fill="#DCE2E2"/>
<path d="M24.3146 17.6337H25.288C25.411 17.6337 25.5289 17.5849 25.6159 17.498C25.7028 17.411 25.7517 17.2931 25.7517 17.1701V16.7292C25.7517 16.6062 25.7028 16.4883 25.6159 16.4013C25.5289 16.3144 25.411 16.2655 25.288 16.2655H9.78534C9.74611 16.2656 9.70706 16.2708 9.66915 16.2808C9.55357 16.2711 9.43764 16.266 9.32165 16.2655C6.9618 16.2655 5.04877 18.1786 5.04877 20.5384C5.04877 22.8983 6.9618 24.8113 9.32165 24.8113C9.43764 24.8109 9.55357 24.8058 9.66915 24.796C9.70706 24.8061 9.74611 24.8112 9.78534 24.8113H25.288C25.411 24.8113 25.5289 24.7625 25.6158 24.6755C25.7028 24.5886 25.7516 24.4707 25.7516 24.3477V23.9068C25.7516 23.7838 25.7028 23.6659 25.6158 23.5789C25.5289 23.492 25.411 23.4431 25.288 23.4431H24.3145C24.1916 23.4431 24.0736 23.3943 23.9867 23.3073C23.8997 23.2204 23.8509 23.1025 23.8509 22.9795V18.0974C23.8509 17.8413 24.0585 17.6337 24.3146 17.6337Z" fill="#FF473E"/>
<path d="M25.0507 18.6269C25.0776 18.5999 25.0927 18.5634 25.0927 18.5253C25.0927 18.4873 25.0776 18.4508 25.0507 18.4238L24.9226 18.2957C24.8957 18.2687 24.8806 18.2322 24.8806 18.1941C24.8806 18.1561 24.8957 18.1196 24.9226 18.0926L25.0507 17.9645C25.0776 17.9375 25.0927 17.901 25.0927 17.863C25.0927 17.8249 25.0776 17.7884 25.0507 17.7614L24.9263 17.6338H9.52243C7.91825 17.6338 6.6178 18.9343 6.6178 20.5384C6.6178 22.1426 7.91825 23.4431 9.52243 23.4431H24.8718L25.0507 23.2642C25.0776 23.2372 25.0927 23.2007 25.0927 23.1626C25.0927 23.1246 25.0776 23.088 25.0507 23.0611L24.9226 22.933C24.8957 22.906 24.8806 22.8695 24.8806 22.8314C24.8806 22.7934 24.8957 22.7569 24.9226 22.7299L25.0507 22.6018C25.0776 22.5748 25.0928 22.5383 25.0928 22.5002C25.0928 22.4621 25.0776 22.4256 25.0507 22.3987L24.9226 22.2705C24.8957 22.2436 24.8806 22.2071 24.8806 22.169C24.8806 22.1309 24.8957 22.0944 24.9226 22.0675L25.0507 21.9393C25.0776 21.9124 25.0927 21.8759 25.0927 21.8378C25.0927 21.7997 25.0776 21.7632 25.0507 21.7363L24.9226 21.6081C24.8957 21.5812 24.8806 21.5447 24.8806 21.5066C24.8806 21.4685 24.8957 21.432 24.9226 21.405L25.0507 21.2769C25.0776 21.25 25.0927 21.2134 25.0927 21.1754C25.0927 21.1373 25.0776 21.1008 25.0507 21.0738L24.9226 20.9457C24.8957 20.9188 24.8806 20.8822 24.8806 20.8442C24.8806 20.8061 24.8957 20.7696 24.9226 20.7426L25.0507 20.6145C25.0776 20.5876 25.0928 20.551 25.0928 20.5129C25.0928 20.4749 25.0776 20.4383 25.0507 20.4114L24.9226 20.2833C24.8957 20.2563 24.8806 20.2198 24.8806 20.1817C24.8806 20.1437 24.8957 20.1071 24.9226 20.0802L25.0507 19.9521C25.0776 19.9251 25.0927 19.8886 25.0927 19.8505C25.0927 19.8125 25.0776 19.7759 25.0507 19.749L24.9226 19.6209C24.8957 19.5939 24.8806 19.5574 24.8806 19.5193C24.8806 19.4813 24.8957 19.4447 24.9226 19.4178L25.0507 19.2897C25.0776 19.2627 25.0927 19.2262 25.0927 19.1881C25.0927 19.1501 25.0776 19.1135 25.0507 19.0866L24.9226 18.9585C24.8957 18.9315 24.8806 18.895 24.8806 18.8569C24.8806 18.8189 24.8957 18.7824 24.9226 18.7554L25.0507 18.6269Z" fill="#DCE2E2"/>
</svg>
