<svg width="20" height="22" viewBox="0 0 20 22" fill="none" xmlns="http://www.w3.org/2000/svg">
<g opacity="0.25">
<path d="M10 21.5966C15.5228 21.5966 20 20.8761 20 19.9872C20 19.0983 15.5228 18.3778 10 18.3778C4.47715 18.3778 0 19.0983 0 19.9872C0 20.8761 4.47715 21.5966 10 21.5966Z" fill="#1F3A12"/>
</g>
<path d="M8.18586 19.9483C8.18586 19.9483 6.56075 20.1319 5.55734 19.9768C4.55394 19.8217 4.464 20.1705 3.17732 20.1142C2.46299 20.0833 1.89138 19.7089 1.5244 19.3824C1.52403 19.3821 1.52366 19.3821 1.52321 19.3817C1.35537 19.2324 1.23072 19.093 1.1543 19.0012C1.10993 18.9475 1.13929 18.8669 1.20715 18.8538C1.622 18.7735 2.17971 18.8851 2.20558 18.8901C1.52789 18.4027 1.35381 17.6497 1.31174 17.3745C1.30326 17.3185 1.34727 17.268 1.40398 17.2703C1.86826 17.2881 2.14187 17.4946 2.14187 17.4946C2.07512 17.0944 2.24148 16.8246 2.33216 16.7116C2.36153 16.6753 2.41356 16.666 2.45258 16.6919C2.78291 16.9107 3.04887 17.3919 3.04887 17.3919L3.1704 17.1442C3.19976 17.0847 3.28153 17.0751 3.32249 17.1272C3.54243 17.4074 3.73079 17.913 3.73079 17.913C4.03295 17.2631 4.63117 16.7293 4.63117 16.7293C4.20666 16.2758 4.13909 15.7645 4.13909 15.7645L4.71799 15.8224C4.38996 15.1856 5.04297 14.8614 5.04297 14.8614C5.04297 14.8614 3.71771 14.1502 4.20666 12.9337C4.69562 11.7173 6.82938 10.9366 6.82938 10.9366L8.02077 18.8516L8.18594 19.9484L8.18586 19.9483Z" fill="#49AF08"/>
<g opacity="0.25">
<path d="M8.18585 19.9482C8.18585 19.9482 6.56073 20.1319 5.55733 19.9768C4.55392 19.8217 4.46398 20.1705 3.1773 20.1142C2.46297 20.0833 1.89136 19.7089 1.52439 19.3824C2.32442 19.9023 3.68558 19.778 4.04252 19.4009C4.39954 19.0239 4.66 19.1895 5.26781 18.7962C5.87562 18.4029 5.44724 17.3918 5.44724 17.3918L8.02061 18.8513L8.18577 19.9482L8.18585 19.9482Z" fill="#1F3A12"/>
</g>
<g opacity="0.7">
<path d="M2.90408 18.9645L2.85457 18.9911C2.63767 19.1081 2.39089 19.1561 2.1456 19.1328C1.95107 19.1142 1.70793 19.1064 1.50054 19.1466C1.43261 19.1597 1.40332 19.2404 1.44769 19.294C1.47319 19.3248 1.50441 19.3607 1.54068 19.4009C1.38555 19.2604 1.26937 19.1303 1.19682 19.0431C1.15245 18.9894 1.18181 18.9088 1.24967 18.8957C1.55919 18.8359 1.94862 18.883 2.13653 18.9123C2.21755 18.9065 2.32332 18.8973 2.3318 18.8903C2.34532 18.8791 2.90415 18.9644 2.90415 18.9644L2.90408 18.9645Z" fill="#F7F7F7"/>
</g>
<g opacity="0.7">
<path d="M2.7728 16.9936C2.75005 16.975 2.72686 16.958 2.7033 16.9426C2.66435 16.9168 2.61224 16.9261 2.58288 16.9623C2.4922 17.0754 2.32584 17.3451 2.39259 17.7453C2.39259 17.7453 2.11898 17.5389 1.6547 17.5211C1.59799 17.5188 1.55398 17.5693 1.56245 17.6253C1.59523 17.841 1.70948 18.3512 2.08464 18.7962C1.50648 18.3111 1.35098 17.6322 1.31166 17.3744C1.30319 17.3185 1.34719 17.2679 1.40391 17.2702C1.86818 17.288 2.1418 17.4945 2.1418 17.4945C2.07505 17.0943 2.2414 16.8245 2.33209 16.7115C2.36145 16.6752 2.41348 16.6659 2.4525 16.6918C2.57062 16.7701 2.68055 16.8821 2.7728 16.9936Z" fill="#F7F7F7"/>
</g>
<g opacity="0.7">
<path d="M3.3224 17.1271C3.37369 17.1923 3.42312 17.2699 3.46943 17.3505C3.44936 17.3586 3.43197 17.3733 3.42119 17.3949L3.10342 17.7366C3.10342 17.7366 3.21588 17.4914 3.08387 17.32L3.17032 17.144C3.19968 17.0845 3.28144 17.075 3.3224 17.1271Z" fill="#F7F7F7"/>
</g>
<g opacity="0.7">
<path d="M5.34036 16.5023L4.88189 16.9801C4.88189 16.9801 4.28366 17.5138 3.98151 18.1638C3.83254 18.368 3.72179 18.6416 3.6288 18.9483C3.6288 18.9483 3.61029 18.5327 3.68477 18.1568C3.72491 17.9561 3.77003 17.8369 3.80749 17.767C3.80712 17.7658 3.80631 17.765 3.80593 17.7639C4.12199 17.1834 4.63102 16.7292 4.63102 16.7292C4.20651 16.2757 4.13894 15.7643 4.13894 15.7643L4.71784 15.8222C4.45195 15.3059 4.83089 14.9952 4.98372 14.896C5.15505 15.0376 5.29361 15.1121 5.29361 15.1121C5.29361 15.1121 4.6406 15.4362 4.96863 16.073L4.38973 16.0151C4.38973 16.0151 4.43679 16.3706 4.69851 16.7515L5.29361 16.3192L5.34029 16.5022L5.34036 16.5023Z" fill="#F7F7F7"/>
</g>
<g opacity="0.7">
<path d="M4.20658 12.9336C4.69553 11.7172 6.8293 10.9365 6.8293 10.9365L6.8791 11.268C6.33648 11.4961 4.85453 12.1966 4.45745 13.1845C4.20814 13.8051 4.43084 14.294 4.70869 14.6244C4.35323 14.3218 3.88316 13.7383 4.20658 12.9336Z" fill="#F7F7F7"/>
</g>
<path d="M16.0506 15.1369C15.7507 15.4907 15.4603 15.6703 15.1919 15.4491L15.3413 14.4716L16.0506 15.1369Z" fill="#EFE029"/>
<path d="M16.7789 13.4871L15.9645 13.8476L16.5259 14.5013" fill="#EFE029"/>
<path d="M16.3948 12.0434L15.8551 12.8506L16.7272 12.9335" fill="#EFE029"/>
<path d="M16.32 19.7881C16.0911 19.861 15.8484 19.9243 15.5914 19.9768C15.5914 19.9768 13.5719 20.5564 12.0023 19.8232C11.9178 19.8429 11.8344 19.8614 11.7514 19.8784V19.8788C9.09315 20.4411 7.29083 19.9467 6.30906 18.9275C5.55303 18.1436 5.28209 17.0492 5.48011 15.8868C5.48011 15.8868 6.35618 11.7246 7.47495 9.29012L10.2582 9.18903L10.3311 9.18635L13.3637 9.07597C13.3637 9.07597 13.353 10.8053 13.9446 12.4003C14.5231 13.9594 15.0398 14.609 15.2309 15.634C15.2355 15.6579 15.2397 15.6822 15.244 15.7065C15.2587 15.6988 15.2734 15.6915 15.288 15.6833C16.7596 14.9045 17.0733 13.5526 16.5295 12.3165C16.5226 12.3006 16.5156 12.2848 16.5083 12.269C16.291 11.7947 15.9475 11.3388 15.4948 10.9402C16.4612 10.8916 17.3326 11.3018 18.0149 11.9737H18.0153C18.2815 12.2357 18.5189 12.5375 18.7219 12.8676C18.7987 12.9918 18.8705 13.1204 18.9368 13.2519V13.2523C20.0691 15.4953 19.6932 18.7109 16.3198 19.788L16.32 19.7881Z" fill="#49AF08"/>
<path d="M11.7514 19.8784V19.8787C7.04814 20.8737 5.02512 18.5604 5.48011 15.8867C5.48011 15.8867 6.35618 11.7245 7.47495 9.29004L10.3312 9.18619C11.1957 9.58714 11.3327 10.0591 11.3327 10.0591C11.3327 10.0591 11.0073 11.3713 11.5114 12.3616C12.015 13.3523 13.8864 17.4083 11.7514 19.8783V19.8784Z" fill="#D7FF5C"/>
<g opacity="0.7">
<path d="M16.8182 14.793C16.0286 16.2595 15.2892 15.9893 15.2892 15.9893V15.7064L15.288 15.6832C16.7596 14.9045 17.0733 13.5525 16.5295 12.3164C16.5226 12.3005 16.5156 12.2847 16.5083 12.2689L16.5974 12.1824C16.5974 12.1824 17.6073 13.3263 16.8182 14.7928L16.8182 14.793Z" fill="#F7F7F7"/>
</g>
<path d="M16.32 19.7881C16.2737 19.6885 16.249 19.6298 16.249 19.6298L16.8263 18.2617C18.5329 17.383 19.3773 15.8238 18.937 13.2524C20.0693 15.4955 19.6934 18.711 16.32 19.7881V19.7881Z" fill="#D7FF5C"/>
<g opacity="0.3">
<path d="M18.015 11.9738C16.7082 11.2251 16.5561 12.3362 16.5561 12.3362L16.5295 12.3165C16.3138 11.8252 15.9626 11.352 15.4948 10.9403C16.4612 10.8917 17.3326 11.3019 18.0149 11.9738H18.015Z" fill="#3D1D55"/>
</g>
<path d="M6.49474 12.0142C6.83094 12.1494 7.19107 12.2406 7.54534 12.319C8.11517 12.434 8.69719 12.5053 9.28017 12.5193C9.45894 12.5291 9.73798 12.5221 9.91875 12.5218C10.0207 12.5164 10.2983 12.5021 10.3978 12.497C10.5115 12.4888 10.7607 12.4616 10.876 12.4512C11.0599 12.4327 11.3267 12.3869 11.5112 12.3619C11.3265 12.3985 11.0641 12.4598 10.8816 12.4894C9.76949 12.6848 8.62189 12.7185 7.50282 12.5565C7.12366 12.4961 6.74612 12.4241 6.38093 12.3013L6.49481 12.0143L6.49474 12.0142Z" fill="#1F3A12"/>
<path d="M5.7943 14.4828C5.91316 14.5105 6.08888 14.563 6.20841 14.595C7.6743 14.9891 9.21996 15.109 10.729 14.934C11.2821 14.8795 11.8268 14.7628 12.3689 14.635C10.6285 15.1632 8.76988 15.3024 6.97001 15.0296C6.62466 14.978 6.27493 14.9093 5.93442 14.8295C5.88885 14.8183 5.78984 14.7961 5.74309 14.7873L5.79423 14.4828H5.7943Z" fill="#1F3A12"/>
<path d="M5.60596 17.11C5.60299 17.0833 5.58961 17.0537 5.57051 17.0345C5.61563 17.0747 5.671 17.1102 5.72371 17.1447C6.72399 17.7569 7.90549 18.0364 9.07436 18.0562C10.3412 18.0747 11.6002 17.753 12.7446 17.2121C11.0499 18.1102 9.0395 18.4756 7.15727 18.0123C6.68489 17.8978 6.22098 17.7372 5.78495 17.5179C5.6435 17.4445 5.5013 17.3701 5.37375 17.2713C5.33807 17.2438 5.30715 17.2012 5.30061 17.1555L5.60596 17.11Z" fill="#1F3A12"/>
<path d="M17.3446 17.9555C17.5922 18.248 17.6878 18.6514 17.6718 19.03C17.6693 19.1183 17.6571 19.2138 17.6453 19.3013L17.3475 19.2198C17.3839 19.1232 17.4218 19.0182 17.4429 18.9164C17.5151 18.5977 17.4969 18.2509 17.3446 17.9555Z" fill="#1F3A12"/>
<path d="M18.4149 16.8876C18.772 17.1224 19.0223 17.4887 19.0353 17.9275L18.7273 17.9052C18.7658 17.7369 18.761 17.5555 18.7049 17.3791C18.6509 17.1966 18.536 17.0334 18.4148 16.8876H18.4149Z" fill="#1F3A12"/>
<path d="M18.9738 15.4491C19.2664 15.5357 19.4939 15.7758 19.6364 16.0398L19.3439 16.1387C19.3385 16.1076 19.3345 16.0753 19.328 16.0438C19.2804 15.815 19.1643 15.5927 18.9738 15.4491H18.9738Z" fill="#1F3A12"/>
<path d="M13.8893 20.3507C13.2873 20.3507 12.6081 20.2644 11.9857 19.9853C9.49968 20.5513 7.48589 20.2542 6.311 19.1469C5.45388 18.3391 5.10467 17.172 5.32789 15.8607C5.32819 15.8587 5.32863 15.8567 5.329 15.8548C5.33777 15.813 6.22165 11.6476 7.33447 9.22567L7.615 9.35456C6.52887 11.7184 5.65933 15.7853 5.63168 15.9155C5.42742 17.1204 5.74377 18.1881 6.52262 18.9222C7.62808 19.9639 9.56168 20.2305 11.9673 19.6726C12.0009 19.6648 12.0363 19.6685 12.0675 19.6832C13.5647 20.3826 15.529 19.834 15.5487 19.8284C15.5525 19.8272 15.5565 19.8263 15.5604 19.8255C18.6983 19.1856 19.5592 16.9221 19.3186 15.0172C19.0807 13.1337 17.7505 11.2439 15.884 11.0994C16.6439 11.8921 17.0255 12.8631 16.9144 13.7581C16.8063 14.6285 16.2382 15.3693 15.3144 15.8438C15.2706 15.8663 15.2187 15.8665 15.1747 15.8445C15.1307 15.8225 15.0998 15.7808 15.0917 15.7322C14.9893 15.1252 14.7661 14.6502 14.4836 14.0489C14.2784 13.6122 14.0458 13.1173 13.7998 12.4542C13.2051 10.851 13.2088 9.14673 13.2093 9.07492L13.518 9.07678C13.5179 9.0938 13.5148 10.798 14.0894 12.3467C14.3309 12.9976 14.5604 13.4864 14.763 13.9176C15.0231 14.4709 15.2345 14.9209 15.3551 15.4695C16.0869 15.0409 16.5188 14.4395 16.608 13.7201C16.7197 12.8201 16.2655 11.8242 15.3927 11.0562C15.3456 11.0148 15.3283 10.9488 15.3489 10.8895C15.3696 10.8302 15.4242 10.7894 15.487 10.7862C16.5008 10.7354 17.4887 11.1716 18.2698 12.0144C18.9914 12.7932 19.4853 13.8736 19.6249 14.9786C19.7705 16.1304 19.5247 17.2459 18.9332 18.1195C18.2488 19.1302 17.1058 19.8243 15.6278 20.1269C15.54 20.1517 14.8036 20.3507 13.8892 20.3508L13.8893 20.3507Z" fill="#1F3A12"/>
<path d="M15.398 15.6951L15.2891 16.4719L15.0901 15.7179L15.398 15.6951Z" fill="#1F3A12"/>
<path d="M16.1044 18.1298C15.8452 17.4236 15.3684 16.7896 14.7519 16.3548C14.5423 16.2078 14.3137 16.0861 14.0735 15.9895C14.5755 16.1323 15.0436 16.399 15.4335 16.7474C15.8289 17.1049 16.1655 17.5365 16.3935 18.0212L16.1044 18.1297V18.1298Z" fill="#1F3A12"/>
<path d="M15.3447 15.4724L15.0395 15.4258L15.189 14.4482C15.1976 14.3916 15.237 14.3444 15.2912 14.3256C15.3453 14.3069 15.4054 14.3198 15.4472 14.359L16.1562 15.0243L15.945 15.2494L15.4498 14.7848L15.3447 15.4724Z" fill="#1F3A12"/>
<path d="M16.4087 14.6019L15.8473 13.9482C15.8155 13.9112 15.8031 13.8612 15.8139 13.8136C15.8246 13.7659 15.8573 13.7262 15.902 13.7065L16.7165 13.346L16.8415 13.6283L16.217 13.9046L16.643 14.4006L16.4088 14.6018L16.4087 14.6019Z" fill="#1F3A12"/>
<path d="M16.7126 13.0872L15.8405 13.0043C15.7864 12.9992 15.739 12.966 15.7157 12.9168C15.6924 12.8677 15.6966 12.81 15.7267 12.7648L16.2665 11.9576L16.5232 12.1292L16.1272 12.7215L16.7417 12.7799L16.7125 13.0873L16.7126 13.0872Z" fill="#1F3A12"/>
<g opacity="0.25">
<path d="M16.32 19.7774C16.0911 19.8503 15.8484 19.9136 15.5914 19.9661C15.5914 19.9661 13.5719 20.5457 12.0023 19.8125C11.9178 19.8322 11.8344 19.8507 11.7514 19.8677V19.868C9.09317 20.4304 7.29085 19.936 6.30907 18.9167C8.29544 20.0518 12.3689 19.0398 12.3689 19.0398C12.7355 19.5473 13.7582 19.5358 13.7582 19.5358C15.3984 19.1499 14.2021 16.8536 13.4499 16.2361C12.6977 15.6186 13.4302 15.0783 13.4495 14.2872C13.4689 13.4961 12.6375 10.6233 12.6375 10.6233C11.0282 10.7629 9.1171 10.0933 9.1171 10.0933L10.2583 9.17832L10.3312 9.17564L13.3638 9.06526C13.3638 9.06526 13.353 10.7946 13.9447 12.3896C14.5232 13.9487 15.0399 14.5983 15.231 15.6233C15.241 15.709 15.2456 15.7888 15.2441 15.8629C15.2264 16.7428 15.6216 17.0218 15.6216 17.0218C19.3049 16.9586 18.7221 12.8568 18.7221 12.8568C18.7989 12.9811 18.8707 13.1097 18.9371 13.2412V13.2416C20.0694 15.4846 19.6935 18.7001 16.3201 19.7773L16.32 19.7774Z" fill="#1F3A12"/>
</g>
<path d="M14.9868 20.3633C16.0282 20.1158 16.6904 19.4674 16.6942 18.123C16.6945 18.0137 16.591 17.9343 16.4848 17.9599C16.3142 18.0011 16.0692 18.1467 15.8744 18.6074C15.8744 18.6074 15.8848 18.0557 15.6435 17.7763C15.5925 17.7173 15.5071 17.7018 15.4382 17.7382C15.2987 17.812 15.0645 18.0031 14.9225 18.4852C14.9225 18.4852 14.8354 18.178 14.4375 17.9062C14.3492 17.8458 14.2271 17.8812 14.1863 17.9801C14.1118 18.1604 14.0268 18.4941 14.0735 19.0287C14.0735 19.0287 13.7267 18.9156 13.2552 18.9893C13.1491 19.0059 13.0845 19.1148 13.122 19.2156C13.2722 19.6193 13.7508 20.5241 14.9868 20.3633Z" fill="#49AF08"/>
<g opacity="0.7">
<path d="M14.7771 18.2232C14.7308 18.1823 14.6775 18.1402 14.6177 18.0992C14.5293 18.0387 14.4074 18.0742 14.3665 18.173C14.292 18.3532 14.2067 18.6871 14.2534 19.2216C14.2534 19.2216 13.9069 19.1085 13.4353 19.1822C13.3291 19.1988 13.2647 19.308 13.3021 19.4087C13.3573 19.5566 13.4561 19.7715 13.6205 19.9769C13.3446 19.7244 13.1948 19.4115 13.1219 19.2158C13.0844 19.1151 13.1489 19.0059 13.2554 18.9892C13.7266 18.9155 14.0735 19.0286 14.0735 19.0286C14.0269 18.4941 14.1118 18.1603 14.1862 17.98C14.2271 17.8812 14.3491 17.8457 14.4375 17.9063C14.5945 18.0135 14.703 18.1259 14.7771 18.2232Z" fill="#F7F7F7"/>
</g>
<g opacity="0.7">
<path d="M15.6435 17.7762C15.6794 17.8179 15.7095 17.8653 15.7349 17.9163C15.6963 17.907 15.655 17.9117 15.6184 17.931C15.4787 18.0047 15.2444 18.1961 15.1023 18.6781C15.1023 18.6781 15.0687 18.5597 14.948 18.4049C15.0911 17.9815 15.3069 17.8075 15.4381 17.738C15.5072 17.7017 15.5925 17.7172 15.6434 17.7762H15.6435Z" fill="#F7F7F7"/>
</g>
<g opacity="0.7">
<path d="M16.6939 18.1232C16.6939 18.132 16.6939 18.1406 16.6936 18.149C16.6839 18.1494 16.6742 18.1506 16.6647 18.1529C16.4941 18.1942 16.2494 18.3397 16.0545 18.8005C16.0545 18.8005 16.0584 18.5859 16.0032 18.3567C16.1692 18.09 16.3502 17.9927 16.4848 17.9599C16.591 17.9345 16.6944 18.0136 16.694 18.1232H16.6939Z" fill="#F7F7F7"/>
</g>
<g opacity="0.7">
<path d="M15.8743 18.6075C15.8743 18.6075 15.882 18.2077 15.735 17.9163C15.769 17.9237 15.8002 17.9414 15.8238 17.9692C15.9144 18.0741 15.9697 18.2181 16.0032 18.3567C15.9584 18.4276 15.9152 18.5107 15.8743 18.6075Z" fill="#F7F7F7"/>
</g>
<g opacity="0.25">
<path d="M16.6939 18.1232C16.6904 19.4674 16.0282 20.1157 14.9866 20.3635C13.7508 20.524 13.2723 19.6194 13.1218 19.2157C13.1059 19.1729 13.1083 19.1289 13.1245 19.0911C13.3757 19.5136 13.8778 20.0134 14.8226 19.8907C15.782 19.6627 16.4195 19.0946 16.5168 17.9557C16.611 17.9511 16.6943 18.0248 16.6939 18.1232Z" fill="#1F3A12"/>
</g>
<path d="M14.6989 20.537C13.578 20.537 13.1257 19.6681 12.9773 19.2694C12.9432 19.178 12.952 19.0774 13.0012 18.9934C13.0507 18.909 13.1344 18.8519 13.2313 18.8368C13.5092 18.7933 13.7474 18.8103 13.9073 18.8349C13.8937 18.3919 13.9707 18.0972 14.0435 17.9211C14.0807 17.8312 14.1556 17.7636 14.2491 17.7358C14.343 17.7078 14.4434 17.7233 14.5246 17.7788C14.6935 17.8942 14.8126 18.0169 14.8956 18.125C15.0413 17.827 15.2235 17.6771 15.366 17.6017C15.4997 17.531 15.6618 17.5614 15.7603 17.6754C15.8701 17.8025 15.9351 17.9719 15.9735 18.1316C16.139 17.9275 16.3125 17.8427 16.4485 17.8099C16.5463 17.7862 16.6475 17.8085 16.7263 17.8706C16.8043 17.9321 16.8488 18.0243 16.8486 18.1234C16.8467 18.8025 16.6786 19.3505 16.349 19.7524C16.0476 20.1199 15.6013 20.3759 15.0225 20.5135C15.0173 20.5148 15.012 20.5158 15.0068 20.5164C14.899 20.5305 14.7964 20.537 14.699 20.537H14.6989ZM13.5754 19.1189C13.4855 19.1189 13.3856 19.1252 13.279 19.1418C13.2771 19.1421 13.2713 19.143 13.2676 19.1494C13.2642 19.1553 13.266 19.16 13.2666 19.1618C13.4345 19.613 13.8775 20.3481 14.9589 20.2114C16.034 19.9531 16.5365 19.2892 16.5398 18.1227C16.5398 18.1209 16.5398 18.1169 16.535 18.113C16.5309 18.1098 16.5262 18.1088 16.521 18.11C16.3845 18.143 16.1861 18.2665 16.0166 18.6675C15.9878 18.7357 15.9147 18.7738 15.8423 18.7584C15.7699 18.743 15.7186 18.6785 15.7201 18.6045C15.7223 18.4673 15.692 18.0686 15.5266 17.8773C15.5228 17.8729 15.5158 17.8718 15.5103 17.8747C15.401 17.9324 15.1985 18.0943 15.0705 18.5288C15.0511 18.5945 14.9908 18.6396 14.9224 18.6396H14.9216C14.8528 18.6392 14.7926 18.5934 14.7739 18.5272C14.7711 18.5181 14.6912 18.2664 14.3503 18.0336C14.3463 18.0309 14.3419 18.0302 14.3373 18.0315C14.3311 18.0334 14.3295 18.0375 14.3288 18.039C14.2584 18.2093 14.1836 18.5171 14.2271 19.0152C14.2316 19.0668 14.2099 19.1172 14.1693 19.1495C14.1288 19.1817 14.0746 19.1915 14.0254 19.1753C14.0234 19.1747 13.844 19.1188 13.5753 19.1188L13.5754 19.1189Z" fill="#1F3A12"/>
<path d="M14.0926 18.8755C14.1064 18.8786 14.1227 18.8835 14.134 18.8895C14.2931 18.9726 14.4341 19.0929 14.542 19.2347C14.578 19.2825 14.6078 19.3341 14.633 19.3856C14.5874 19.3499 14.5409 19.3184 14.4914 19.293C14.3535 19.2242 14.2006 19.1789 14.0472 19.1783C14.0433 19.1785 14.0532 19.1814 14.0543 19.1817L14.0926 18.8754V18.8755Z" fill="#1F3A12"/>
<path d="M3.45153 20.2749C3.36441 20.2749 3.27112 20.2729 3.1707 20.2685C2.07892 20.221 1.31367 19.4351 1.0353 19.0995C0.979403 19.0321 0.963644 18.9427 0.99308 18.8603C1.02259 18.7779 1.09164 18.7187 1.17779 18.702C1.35916 18.667 1.56246 18.6654 1.74205 18.6763C1.32579 18.201 1.19742 17.6488 1.15914 17.3979C1.14806 17.3252 1.16977 17.2521 1.21875 17.1972C1.26736 17.1427 1.33694 17.1127 1.40971 17.1159C1.64385 17.1248 1.83504 17.178 1.97426 17.2336C1.99359 16.9353 2.1227 16.7259 2.2119 16.6149C2.29188 16.5153 2.43199 16.4929 2.53777 16.563C2.73861 16.6962 2.91404 16.9109 3.03118 17.0773L3.03178 17.0761C3.06917 16.9999 3.14209 16.949 3.22667 16.9402C3.31074 16.9313 3.39177 16.9656 3.44372 17.0318C3.56169 17.1821 3.66917 17.3876 3.74729 17.5563C3.97624 17.18 4.26316 16.8725 4.41784 16.7191C4.05362 16.2679 3.98872 15.8056 3.9859 15.7845C3.97973 15.7377 3.99527 15.6907 4.02805 15.6569C4.06083 15.623 4.10721 15.6058 4.15426 15.6107L4.4892 15.6441C4.45976 15.5077 4.46593 15.3748 4.50786 15.2468C4.56257 15.08 4.66983 14.9537 4.76765 14.867C4.64061 14.7751 4.4727 14.6355 4.32173 14.4512C3.93045 13.9734 3.84103 13.4286 4.0632 12.8758C4.57178 11.6102 6.68622 10.8242 6.77594 10.7913L6.88201 11.0813C6.86135 11.0889 4.80689 11.853 4.34961 12.9909C3.91893 14.0626 5.06668 14.6987 5.11582 14.7253C5.16651 14.7527 5.1978 14.8061 5.19676 14.8638C5.1958 14.9214 5.16279 14.9737 5.11121 14.9994C5.10942 15.0003 4.87231 15.1229 4.8005 15.345C4.76029 15.4694 4.77813 15.6023 4.85491 15.7514C4.88085 15.8017 4.87714 15.8622 4.84532 15.9089C4.81351 15.9557 4.7588 15.9815 4.70231 15.9757L4.3415 15.9396C4.39829 16.1141 4.51477 16.3791 4.74356 16.6235C4.77196 16.6539 4.78697 16.6944 4.78511 16.7359C4.78326 16.7775 4.76475 16.8165 4.73368 16.8442C4.72795 16.8493 4.15508 17.3657 3.87039 17.9776C3.84407 18.0341 3.78669 18.069 3.7244 18.0668C3.66226 18.0643 3.60755 18.0248 3.58585 17.9665C3.58421 17.9622 3.43815 17.5734 3.26191 17.3075L3.18721 17.4596C3.16186 17.5113 3.1099 17.5445 3.05244 17.5458C3.05118 17.5458 3.04991 17.5458 3.04872 17.5458C2.99268 17.5458 2.94087 17.5154 2.91366 17.4662C2.91136 17.462 2.68911 17.0648 2.4172 16.856C2.33774 16.9732 2.24587 17.1795 2.29411 17.469C2.30452 17.5313 2.27582 17.5936 2.22186 17.6264C2.16774 17.6591 2.09929 17.6556 2.04881 17.6176C2.04725 17.6164 1.83474 17.4627 1.47795 17.4294C1.53771 17.7417 1.7245 18.3545 2.29619 18.7647C2.35536 18.8073 2.37677 18.8853 2.34755 18.9521C2.31827 19.0189 2.24631 19.056 2.17495 19.0413C2.17005 19.0403 1.72086 18.9491 1.34735 18.9886C1.64542 19.3232 2.29879 19.9213 3.18416 19.9599C3.78795 19.9862 4.12022 19.9206 4.41338 19.8628C4.7475 19.7968 5.03613 19.7398 5.58091 19.824C6.55272 19.9742 8.15264 19.7965 8.1687 19.7948L8.20334 20.1015C8.13614 20.1091 6.54589 20.2856 5.53378 20.1292C5.04253 20.0533 4.79128 20.1029 4.47314 20.1657C4.21165 20.2173 3.92056 20.2747 3.4516 20.2748L3.45153 20.2749Z" fill="#1F3A12"/>
<path d="M4.7319 16.8461L4.53031 16.6123C4.54488 16.5997 4.89193 16.3015 5.36149 15.9873L5.53319 16.2438C5.08014 16.547 4.73546 16.8432 4.73197 16.8462L4.7319 16.8461Z" fill="#1F3A12"/>
<path d="M3.89083 17.9278C3.78491 18.1549 3.68746 18.3888 3.62881 18.6347C3.59484 18.4444 3.588 18.2464 3.58718 18.052C3.58733 17.9862 3.58785 17.9221 3.59105 17.8538L3.89083 17.9277V17.9278Z" fill="#1F3A12"/>
<path d="M2.27872 17.4233L2.42166 18.0317L2.00496 17.5659L2.27872 17.4233Z" fill="#1F3A12"/>
<path d="M3.20126 17.3675L3.12113 17.8484L2.89627 17.4158L3.20126 17.3675Z" fill="#1F3A12"/>
<path d="M2.22133 18.7368L2.79146 18.9483L2.19101 19.044L2.22133 18.7368Z" fill="#1F3A12"/>
<path d="M5.9256 13.4771C5.9088 13.279 5.84242 13.0807 5.72788 12.9159C5.68788 12.8586 5.63853 12.808 5.583 12.7606C5.65079 12.7853 5.71918 12.8172 5.78132 12.8603C5.97391 12.9941 6.12414 13.1864 6.22419 13.3989L5.92552 13.4772L5.9256 13.4771Z" fill="#1F3A12"/>
<path d="M4.80898 15.6977L4.96879 16.0056L4.62679 15.9469L4.80898 15.6977Z" fill="#1F3A12"/>
<g opacity="0.25">
<path d="M6.30908 12.3733C6.27771 12.3747 6.00432 12.8699 5.583 12.7155C5.583 12.7155 5.16348 12.6384 5.4472 13.3041C5.73092 13.9698 5.61519 15.2434 5.6441 15.2144C5.67302 15.1855 6.2618 12.7606 6.2618 12.7606" fill="#1F3A12"/>
</g>
<path d="M10.6565 10.0737C10.6565 10.0737 12.8066 9.94453 14.7037 8.77016C16.4418 7.69429 16.6328 6.1383 16.2227 4.856C15.878 3.77804 14.9723 2.66753 14.9723 2.66753C14.9723 2.66753 14.3988 1.20237 13.7569 0.700782C13.0771 0.169533 12.2582 -0.139687 11.0239 0.483733C11.0239 0.483733 9.67995 -0.0066332 8.18506 0.463738C8.18506 0.463738 7.32913 -0.156932 6.4263 0.296417C5.58442 0.719142 5.39837 2.24592 5.39837 2.24592C5.39837 2.24592 4.29959 3.21513 4.23582 4.34735C4.17464 5.43282 2.90758 7.17434 2.90758 7.17434C2.90758 7.17434 2.76553 7.98128 3.2889 8.26448C3.81235 8.54769 4.10232 8.54984 4.65289 8.87519C5.56606 9.41477 6.58544 9.83318 8.43244 9.9504" fill="#49AF08"/>
<path d="M16.2463 6.95981C16.0221 7.61854 15.5435 8.25029 14.7036 8.77024C12.8064 9.94438 10.6566 10.0738 10.6566 10.0738L8.43242 9.95033C6.58557 9.83303 5.56604 9.41484 4.6528 8.87519C4.10245 8.5497 3.81226 8.54754 3.28896 8.26448C3.23715 8.23624 3.19159 8.20294 3.15189 8.1657C2.79235 7.82883 2.90764 7.17441 2.90764 7.17441C2.90764 7.17441 4.17455 5.43296 4.2358 4.34735C4.29972 3.21498 5.3982 2.24607 5.3982 2.24607C5.3982 2.24607 5.58455 0.719217 6.42636 0.296418C7.32934 -0.156932 8.18512 0.463961 8.18512 0.463961C9.68008 -0.00663321 11.024 0.483734 11.024 0.483734C12.2584 -0.139612 13.077 0.169608 13.7569 0.700708C14.3987 1.20245 14.9723 2.66782 14.9723 2.66782C14.9723 2.66782 15.878 3.77819 16.2229 4.8563C16.435 5.51897 16.4863 6.2547 16.2464 6.95996L16.2463 6.95981Z" fill="#49AF08"/>
<path d="M14.47 4.29513C14.79 4.28926 15.0455 4.07488 15.0408 3.8163C15.036 3.55771 14.7728 3.35284 14.4529 3.3587C14.1329 3.36457 13.8774 3.57895 13.8821 3.83753C13.8869 4.09612 14.1501 4.30099 14.47 4.29513Z" fill="#3A8E04"/>
<path d="M13.0821 4.71819C13.3128 4.71396 13.4971 4.55937 13.4936 4.3729C13.4902 4.18643 13.3004 4.03869 13.0697 4.04292C12.839 4.04715 12.6547 4.20174 12.6581 4.38821C12.6616 4.57468 12.8514 4.72242 13.0821 4.71819Z" fill="#3A8E04"/>
<path d="M15.5181 5.06295C15.7238 5.05534 15.8853 4.90802 15.8788 4.73392C15.8724 4.55981 15.7004 4.42484 15.4948 4.43245C15.2891 4.44007 15.1276 4.58738 15.1341 4.76149C15.1405 4.93559 15.3125 5.07056 15.5181 5.06295Z" fill="#3A8E04"/>
<path d="M14.2815 5.20311C14.4651 5.19631 14.6092 5.06479 14.6035 4.90935C14.5977 4.75391 14.4442 4.63341 14.2606 4.64021C14.0771 4.647 13.9329 4.77852 13.9386 4.93396C13.9444 5.0894 14.0979 5.2099 14.2815 5.20311Z" fill="#3A8E04"/>
<path d="M15.5245 6.13407C15.7302 6.12646 15.8917 5.97915 15.8852 5.80504C15.8788 5.63093 15.7068 5.49596 15.5012 5.50358C15.2955 5.51119 15.134 5.6585 15.1405 5.83261C15.1469 6.00672 15.3189 6.14169 15.5245 6.13407Z" fill="#3A8E04"/>
<g opacity="0.5">
<path d="M10.8907 1.00889C11.153 0.76374 11.7195 0.34659 12.5819 0.471467C13.3263 0.579323 13.9232 1.50892 13.7984 1.39415C12.4348 0.141063 10.7131 1.17479 10.8907 1.00889H10.8907Z" fill="white"/>
</g>
<g opacity="0.5">
<path d="M5.94908 1.18729C6.07782 0.83748 6.49126 0.228109 7.35365 0.353061C8.09809 0.460916 8.4389 1.15978 8.3054 1.05304C6.65375 -0.267238 5.86903 1.40471 5.94908 1.18729Z" fill="white"/>
</g>
<g opacity="0.3">
<path d="M16.2463 6.95981C16.0221 7.61854 15.5435 8.25029 14.7036 8.77024C12.8064 9.94438 10.6566 10.0738 10.6566 10.0738L8.43242 9.95033C6.58558 9.83303 5.56604 9.41484 4.6528 8.87519C4.10245 8.54969 3.81226 8.54754 3.28896 8.26448C3.23716 8.23624 3.19159 8.20294 3.1519 8.1657C3.69645 8.38014 4.00575 8.30886 4.68514 8.59556C6.82857 9.50129 7.01715 8.72698 7.98904 8.78391C10.2155 8.91437 14.5509 9.67961 16.2456 6.9607C16.2456 6.96041 16.246 6.96011 16.2463 6.95981Z" fill="#1F3A12"/>
</g>
<path d="M14.6405 8.37011C14.3021 8.87839 13.7769 9.28714 13.1403 9.51757C11.7918 10.0056 10.6565 10.0735 10.6565 10.0735L9.67243 10.1129L8.43235 9.95033C6.5855 9.8334 5.56597 9.41484 4.65273 8.87489C4.102 8.55006 3.81211 8.54791 3.28889 8.26418C3.23701 8.23624 3.19181 8.20293 3.15249 8.16577C3.69667 8.37984 4.00597 8.30893 4.68506 8.59563C6.82849 9.50136 7.01707 8.72705 7.98896 8.78399C9.68268 8.88322 12.597 9.34972 14.6405 8.37018L14.6405 8.37011Z" fill="#ABD625"/>
<path d="M13.1404 9.51764C11.7918 10.0055 10.6564 10.0736 10.6564 10.0736L9.67243 10.1129L8.43228 9.95025C6.58551 9.83326 5.56612 9.41469 4.65281 8.87497C4.10208 8.54992 3.81204 8.54769 3.28897 8.26426C2.76552 7.98106 2.90735 7.17411 2.90735 7.17411C2.90735 7.17411 3.10321 6.94279 3.3549 6.59633C4.77939 6.81606 6.59718 6.99884 7.95656 6.79955C9.55811 6.56459 11.4773 5.359 12.7039 5.28185C13.33 5.2423 13.6688 5.26156 14.1819 5.52127C14.806 5.83711 15.088 6.44447 15.0546 7.14029C15.004 8.1929 14.238 9.12056 13.1404 9.51757V9.51764Z" fill="#D7FF5C"/>
<path d="M3.15293 8.16577C3.15293 8.16577 3.15264 8.1657 3.15249 8.16562C3.16223 8.17499 3.17233 8.18391 3.18326 8.19275C3.1933 8.2013 3.20422 8.20978 3.21508 8.2178C3.22452 8.22442 3.23403 8.23104 3.24392 8.23728C3.2489 8.24077 3.2538 8.24389 3.25871 8.24694C3.26852 8.25274 3.27878 8.25854 3.28904 8.26434C3.32189 8.28188 3.35341 8.29875 3.3844 8.31451C3.39986 8.32217 3.4154 8.3299 3.43041 8.33718C3.46044 8.35182 3.49003 8.36572 3.51917 8.37896C3.54786 8.39219 3.5764 8.4046 3.60413 8.41634C3.6459 8.43396 3.68626 8.45046 3.72611 8.46622C3.73963 8.47135 3.75279 8.47648 3.76595 8.48161C3.88414 8.52673 3.99764 8.56642 4.11724 8.6137C4.15716 8.62945 4.19752 8.64603 4.23885 8.66402C4.36335 8.71798 4.49774 8.78362 4.65265 8.8749C5.56574 9.41484 6.58543 9.83326 8.43242 9.95048L9.67235 10.113L10.6561 10.0737H10.6566C10.6566 10.0737 11.7915 10.0056 13.1401 9.51772C13.2199 9.4891 13.2973 9.45714 13.3733 9.42302C13.3887 9.41626 13.4037 9.40949 13.4187 9.40236C13.4422 9.39135 13.4654 9.38006 13.4879 9.36876C13.5057 9.35984 13.5236 9.35092 13.5409 9.34163C13.5724 9.32565 13.603 9.309 13.6331 9.2916C13.6472 9.2838 13.6608 9.27599 13.6745 9.26781C13.7962 9.19698 13.9117 9.11885 14.0199 9.03426C14.0333 9.02378 14.0467 9.01323 14.0601 9.00238C14.0869 8.98097 14.1128 8.95926 14.1386 8.93674C14.1516 8.92552 14.1645 8.91422 14.177 8.90299C14.2024 8.88017 14.227 8.85736 14.2515 8.83379C14.276 8.81023 14.3 8.78629 14.3232 8.76243C14.3406 8.74415 14.3579 8.72586 14.3749 8.70765C14.3976 8.68305 14.4198 8.65777 14.4416 8.63243C14.4508 8.62224 14.4596 8.61139 14.4684 8.60084C14.5302 8.52643 14.5875 8.44972 14.6402 8.37019C14.886 8.00239 15.0331 7.58234 15.0544 7.14014C15.0879 6.4444 14.8056 5.83711 14.1816 5.52127C13.6687 5.26133 13.3297 5.2423 12.704 5.28185C11.4772 5.35886 9.55788 6.56437 7.95662 6.7997C6.59724 6.99891 4.77939 6.81598 3.35504 6.59626C3.10321 6.94264 2.90727 7.17419 2.90727 7.17419C2.90727 7.17419 2.79243 7.8289 3.15286 8.16585L3.15293 8.16577Z" fill="#D7FF5C"/>
<g opacity="0.25">
<path d="M3.15249 8.16563C3.16223 8.17499 3.17234 8.18391 3.18326 8.19276C3.1933 8.2013 3.20423 8.20978 3.21508 8.21781C3.22452 8.22442 3.23403 8.23104 3.24392 8.23728C3.2489 8.24078 3.25381 8.2439 3.25871 8.24694C3.26852 8.25274 3.27878 8.25854 3.28904 8.26434C3.32189 8.28188 3.35341 8.29875 3.38441 8.31451C3.39987 8.32217 3.4154 8.3299 3.43042 8.33718C3.46045 8.35183 3.49003 8.36573 3.51917 8.37896C3.54786 8.39219 3.57641 8.4046 3.60413 8.41635C3.64591 8.43433 3.68627 8.45084 3.72611 8.46622C3.73964 8.47135 3.75279 8.47648 3.76595 8.48161C3.88421 8.5271 3.99764 8.56679 4.11724 8.6137C4.15671 8.62953 4.19708 8.64603 4.23885 8.66402C4.36336 8.71798 4.49775 8.78362 4.65265 8.8749C5.56575 9.41484 6.58543 9.83326 8.43242 9.95048L9.67235 10.113L10.6561 10.0737H10.6566C10.6566 10.0737 11.7916 10.0056 13.1401 9.51772C13.2199 9.4891 13.2973 9.45714 13.3733 9.42302C13.3887 9.41626 13.4037 9.40949 13.4187 9.40236C13.4422 9.39136 13.4654 9.38006 13.488 9.36876C13.5057 9.35984 13.5236 9.35092 13.5409 9.34163C13.5724 9.32565 13.603 9.309 13.6331 9.2916C13.6472 9.2838 13.6608 9.27599 13.6745 9.26782C13.7962 9.19698 13.9117 9.11886 14.0199 9.03427C14.0333 9.02379 14.0467 9.01323 14.0601 9.00238C14.0869 8.98097 14.1128 8.95927 14.1387 8.93674C14.1516 8.92552 14.1645 8.91422 14.177 8.903C14.2024 8.88018 14.227 8.85736 14.2515 8.83379C14.276 8.81023 14.3 8.7863 14.3232 8.76243C14.3406 8.74452 14.358 8.72631 14.3749 8.70765C14.3976 8.68305 14.4198 8.65778 14.4416 8.63243C14.4508 8.62225 14.4596 8.61139 14.4684 8.60084C14.5302 8.52643 14.5875 8.44972 14.6402 8.37019C12.5969 9.34973 9.68246 8.88308 7.98881 8.78377C7.01707 8.72713 6.82842 9.50122 4.68484 8.59541C4.00597 8.30886 3.69667 8.37992 3.15234 8.16563H3.15249Z" fill="#1F3A12"/>
</g>
<path d="M10.6565 10.0737C12.035 9.79839 13.411 9.39797 14.6111 8.65361C15.857 7.89587 16.5012 6.64338 16.1512 5.19562C15.9335 4.27837 15.3937 3.47009 14.8489 2.71592C14.6037 2.12944 14.3179 1.53084 13.9124 1.03884C13.7772 0.875461 13.6176 0.753334 13.4426 0.637823C13.2673 0.52246 13.0816 0.426944 12.8864 0.363316C12.2826 0.160093 11.6448 0.316412 11.0837 0.602144C11.0496 0.61924 11.0118 0.620355 10.9784 0.608313C10.8743 0.57308 10.757 0.541043 10.6473 0.516067C10.0781 0.386581 9.484 0.356551 8.90577 0.437201C8.67489 0.469833 8.44699 0.521345 8.22482 0.59025C8.18401 0.602887 8.14164 0.595008 8.10908 0.572411C7.84476 0.396839 7.52744 0.285639 7.21138 0.266089C6.46501 0.23658 6.05537 0.639532 5.78711 1.30086C5.69315 1.53084 5.62298 1.77413 5.57229 2.01839C5.55556 2.09941 5.54025 2.1843 5.52992 2.26197C5.52546 2.2952 5.50948 2.32404 5.48651 2.34493C5.32417 2.49411 5.16681 2.66864 5.02907 2.84399C4.75419 3.1961 4.5196 3.59533 4.41665 4.0298C4.36008 4.25704 4.37153 4.4978 4.31199 4.72206C4.25587 4.96088 4.17255 5.18715 4.07926 5.40725C3.79368 6.06189 3.42507 6.6688 3.01483 7.25223C3.01475 7.25238 3.03817 7.19723 3.03817 7.19723C3.01349 7.43412 3.03133 7.71198 3.14736 7.91854C3.20237 8.01778 3.28302 8.09486 3.38389 8.14355C3.50259 8.20591 3.62316 8.26218 3.74871 8.31221C4.04031 8.42474 4.35317 8.53371 4.62798 8.69457C5.30023 9.11387 6.02125 9.44718 6.79415 9.64259C7.33187 9.78658 7.88059 9.87406 8.4325 9.95033C7.5892 9.95263 6.74086 9.85868 5.93354 9.60394C5.42912 9.44643 4.94619 9.20887 4.48794 8.94707C4.08476 8.72311 3.62279 8.6267 3.21798 8.39761C2.85487 8.20457 2.73073 7.76044 2.75199 7.38001C2.75682 7.3004 2.76173 7.23216 2.77697 7.15129C2.78039 7.13092 2.78827 7.11167 2.80038 7.09629C3.0659 6.7224 3.31379 6.32584 3.53329 5.92207C3.74744 5.52209 3.94799 5.10115 4.05376 4.66192C4.11182 4.43179 4.09948 4.19668 4.15857 3.96907C4.33645 3.25445 4.78452 2.64649 5.31064 2.14639L5.26678 2.22979C5.34773 1.69869 5.49855 1.17613 5.79105 0.719811C6.30282 -0.102967 7.35097 -0.178043 8.14156 0.280138C8.18468 0.30608 8.22028 0.325629 8.26302 0.356403L8.14543 0.337299C8.97192 0.0790709 9.86517 0.0666573 10.707 0.25769C10.8311 0.287348 10.9463 0.316264 11.0695 0.359227L10.9642 0.365397C11.8415 -0.0846079 12.7439 -0.156189 13.5884 0.416165C13.6843 0.479719 13.7741 0.544314 13.865 0.618051C14.1314 0.841195 14.3277 1.13176 14.5048 1.42106C14.7349 1.80624 14.9265 2.20332 15.0958 2.61914C15.0959 2.61928 15.0751 2.58368 15.0752 2.58368C15.383 2.95824 15.6541 3.35428 15.8971 3.77351C16.2686 4.406 16.5401 5.11564 16.5643 5.85732C16.6181 7.17976 15.8765 8.24873 14.7659 8.90485C13.5286 9.6368 12.0991 10.0828 10.6566 10.0736L10.6565 10.0737Z" fill="#1F3A12"/>
<path d="M4.51343 8.55051C5.00067 8.59399 5.46963 8.79172 5.94528 8.87549C6.29568 8.93889 6.65612 8.93622 7.00815 8.87385C7.12738 8.85334 7.24535 8.82286 7.36628 8.79016C6.95657 9.09194 6.40287 9.16798 5.90856 9.06964C5.41158 8.97086 4.97548 8.74035 4.51343 8.55058V8.55051Z" fill="#1F3A12"/>
<path d="M7.90942 7.59981C7.89099 7.59981 7.87315 7.59215 7.86036 7.5781C7.84371 7.55974 7.83866 7.53373 7.84721 7.51046C7.92273 7.30665 7.96539 7.05273 7.99973 6.84869C8.0337 6.6468 8.05823 6.50089 8.10372 6.42931C8.14565 6.3633 8.21753 6.33907 8.3007 6.36286C8.57365 6.4409 9.00039 7.036 9.00306 7.3424C9.00336 7.37748 8.97623 7.40677 8.94122 7.40915C8.56153 7.4345 8.26911 7.5063 7.92644 7.59751C7.92079 7.59899 7.91507 7.59974 7.90942 7.59974V7.59981ZM8.24035 6.48632C8.22474 6.48632 8.21983 6.49398 8.21567 6.50052C8.18452 6.54943 8.15828 6.70545 8.13048 6.87069C8.10149 7.04306 8.06671 7.25023 8.01074 7.43829C8.29163 7.36544 8.54882 7.30821 8.86369 7.28204C8.8095 7.00679 8.4461 6.54237 8.26436 6.49033C8.25432 6.48744 8.24652 6.48625 8.24035 6.48625V6.48632Z" fill="#16260E"/>
<path d="M10.977 6.96353C10.9678 6.96353 10.9586 6.9616 10.95 6.95781C10.9307 6.94918 10.9167 6.93187 10.9122 6.9112C10.8709 6.71905 10.7948 6.51486 10.7276 6.33468C10.6485 6.12269 10.604 5.99893 10.6085 5.92021C10.6119 5.86008 10.6444 5.81377 10.7002 5.78998C10.9138 5.69855 11.4705 5.96689 11.7271 6.18557C11.7521 6.20683 11.7577 6.24311 11.7405 6.27098C11.5714 6.54341 11.3257 6.77346 11.01 6.95476C10.9998 6.96063 10.9884 6.96353 10.977 6.96353ZM10.8063 5.90319C10.7843 5.90319 10.766 5.90594 10.7524 5.91181C10.7426 5.91597 10.7414 5.91872 10.7409 5.92764C10.7377 5.9825 10.7957 6.138 10.8518 6.2883C10.9104 6.44551 10.9757 6.62064 11.0206 6.79383C11.2618 6.64294 11.455 6.46045 11.5963 6.24995C11.3461 6.05594 10.9704 5.90319 10.8063 5.90319Z" fill="#16260E"/>
<path d="M1.89309 7.18957C2.13392 7.84852 2.53338 8.27087 2.734 8.27868C3.01639 8.28968 3.06322 7.30471 3.14915 7.11673" fill="white"/>
<path d="M2.74001 8.41144C2.73637 8.41144 2.73266 8.41144 2.72894 8.41122C2.42715 8.3994 2.00532 7.88279 1.76865 7.23514C1.74352 7.16638 1.77891 7.09027 1.84766 7.06507C1.91634 7.03994 1.99253 7.07525 2.01773 7.14408C2.25329 7.78869 2.62317 8.13426 2.73563 8.14593C2.83011 8.09211 2.91261 7.61468 2.94383 7.43398C2.97691 7.2425 2.99713 7.13078 3.02879 7.06165C3.0592 6.99505 3.13784 6.96576 3.20451 6.99616C3.27112 7.02664 3.3004 7.10528 3.26993 7.17188C3.25112 7.21314 3.22666 7.35444 3.20511 7.4791C3.12959 7.91647 3.04411 8.41144 2.74016 8.41144H2.74001Z" fill="#1F3A12"/>
<path d="M6.86477 7.39829C6.78033 8.23445 6.47326 8.627 6.29568 8.6516C6.04771 8.68602 5.75351 7.73576 5.61406 7.57929" fill="white"/>
<path d="M6.28082 8.78526C6.03612 8.78526 5.86292 8.40148 5.67999 7.99623C5.62149 7.86659 5.54872 7.70529 5.51505 7.66753C5.46629 7.61282 5.47112 7.52905 5.52583 7.48029C5.58039 7.4316 5.66431 7.43636 5.713 7.49107C5.77083 7.55603 5.82717 7.67764 5.92172 7.88711C6.0014 8.06364 6.18612 8.47306 6.28431 8.5187C6.36994 8.49269 6.65158 8.18882 6.73283 7.38492C6.74019 7.31208 6.80478 7.25915 6.87807 7.26636C6.95092 7.27372 7.00399 7.33876 6.99671 7.41161C6.91085 8.26166 6.58818 8.74489 6.31389 8.78295C6.30274 8.78451 6.29174 8.78526 6.28082 8.78526Z" fill="#1F3A12"/>
<path d="M10.6299 6.89484C10.6204 7.69517 10.4125 8.11753 10.2348 8.14213C9.98684 8.17655 9.51862 7.23231 9.37918 7.07584" fill="white"/>
<path d="M10.2212 8.27571C9.98805 8.27571 9.75479 7.92442 9.45486 7.43353C9.38477 7.31884 9.31237 7.2002 9.28019 7.16415C9.23142 7.10944 9.23625 7.02567 9.29096 6.97691C9.3456 6.92822 9.42944 6.93298 9.47813 6.98769C9.52399 7.03912 9.58219 7.13323 9.68113 7.29527C9.7953 7.48214 10.0964 7.97504 10.2202 8.00975C10.2837 7.98514 10.488 7.68001 10.4972 6.89336C10.4981 6.82014 10.5585 6.76291 10.6314 6.76231C10.7046 6.76321 10.7633 6.82327 10.7624 6.89648C10.7531 7.69139 10.5531 8.23193 10.253 8.27355C10.2423 8.27504 10.2318 8.27578 10.2212 8.27578L10.2212 8.27571Z" fill="#1F3A12"/>
<path d="M10.8979 4.18419C10.6164 3.78057 10.0955 3.26144 8.89841 2.93222C7.3891 2.51708 5.26567 2.7374 4.32292 3.66067C3.7655 3.48532 2.6399 3.30834 1.71737 4.17416C0.766738 5.06643 1.20834 6.90466 1.96281 7.31705C2.58118 7.65504 3.09325 7.32151 3.40499 7.22146C3.77576 7.10238 4.1579 7.14676 4.70855 7.49567C5.39649 7.9317 6.12457 7.93556 7.0393 7.74773C7.95402 7.55982 8.35385 7.3389 9.21588 7.33288C10.0779 7.32686 11.2621 7.03095 11.7376 6.14402C12.213 5.25709 12.7037 5.28192 12.7037 5.28192L10.8979 4.18426V4.18419Z" fill="#49AF08"/>
<g opacity="0.5">
<path d="M1.90379 4.37842C1.90379 4.37842 2.75288 3.34647 4.30114 4.00059C4.76987 3.89459 6.40212 3.58351 7.13593 4.43476C7.13593 4.43476 5.81698 3.79677 4.28538 4.24596C4.28538 4.24596 3.07162 3.59578 1.90379 4.37842Z" fill="white"/>
</g>
<g opacity="0.3">
<path d="M12.7035 5.282C12.6878 5.2814 12.2052 5.27144 11.7375 6.14387C11.2622 7.0311 10.0779 7.32679 9.21595 7.33281C8.35393 7.33883 7.95402 7.55982 7.03929 7.74773C6.12457 7.93564 5.39649 7.93163 4.70877 7.49575C4.1582 7.14668 3.77598 7.10231 3.40507 7.22131C3.09354 7.32136 2.58117 7.65489 1.96288 7.3169C1.49875 7.06358 1.15334 6.27091 1.17682 5.49042C1.26647 6.1047 1.56305 6.65699 1.93605 6.86095C2.55434 7.19886 3.06634 6.86541 3.37823 6.76536C3.74885 6.64636 4.13099 6.69073 4.68164 7.03979C5.36973 7.47567 6.09751 7.47961 7.01254 7.29178C7.92726 7.10387 8.3268 6.88288 9.18882 6.87686C10.0508 6.87084 11.2351 6.57507 11.7107 5.68792C11.8984 5.33752 12.7036 5.28207 12.7036 5.28207L12.7035 5.282Z" fill="#1F3A12"/>
</g>
<path d="M4.36929 3.53639C4.33807 3.52598 4.33569 3.53014 4.32915 3.52843L4.33881 3.52635L4.37003 3.51914C5.13699 3.31332 5.96765 3.27311 6.7204 3.57162C7.32836 3.80919 7.80253 4.30795 7.83754 4.98311C7.85218 5.18529 7.82683 5.39067 7.77606 5.58579C7.77175 5.20016 7.70738 4.80449 7.4916 4.4862C6.88527 3.61332 5.59799 3.58084 4.64276 3.74645C4.57519 3.75834 4.44853 3.78139 4.38089 3.79097C4.34052 3.79402 4.33123 3.80071 4.2766 3.78481C4.20799 3.75916 4.17313 3.68282 4.1987 3.61421C4.22427 3.54561 4.30068 3.51074 4.36929 3.53631V3.53639Z" fill="#1F3A12"/>
<path d="M2.96124 5.31515C2.96124 5.31515 2.80209 4.67842 2.45957 4.69284C2.22127 4.70288 2.13303 4.98616 2.20172 5.19436C2.2704 5.40256 2.47793 5.43482 2.5953 5.35901C2.74085 5.26498 2.74761 5.06317 2.96124 5.31508V5.31515Z" fill="#1F3A12"/>
<path d="M5.60536 5.51777C5.60536 5.51777 5.84537 4.89525 6.1844 4.93397C6.42033 4.96088 6.47192 5.24921 6.37685 5.45154C6.28178 5.65395 6.07104 5.67127 5.96401 5.5875C5.83118 5.48358 5.85028 5.28214 5.60536 5.51777Z" fill="#1F3A12"/>
<path d="M8.93685 7.34307C8.54669 7.36916 8.24683 7.44371 7.90944 7.5335C8.05498 7.14081 8.0775 6.5941 8.15971 6.46491C8.31105 6.22668 8.93381 6.99936 8.93685 7.34299V7.34307Z" fill="white"/>
<path d="M7.90942 7.66612C7.87255 7.66612 7.8368 7.65073 7.8113 7.62271C7.778 7.58606 7.76789 7.53388 7.78506 7.48743C7.85843 7.28941 7.90057 7.03898 7.93439 6.83769C7.97312 6.60711 7.99758 6.4728 8.04782 6.39371C8.10573 6.30258 8.20712 6.26712 8.31899 6.29916C8.61765 6.38456 9.06647 7.00821 9.06944 7.34188C9.07004 7.41213 9.01577 7.4707 8.94568 7.47538C8.57194 7.50036 8.28271 7.57142 7.94346 7.66166C7.93224 7.66463 7.92072 7.66612 7.90934 7.66612H7.90942ZM8.26183 6.55798C8.24005 6.61923 8.21589 6.76306 8.19589 6.88162C8.17218 7.0227 8.1446 7.18675 8.10469 7.34597C8.32426 7.29149 8.53596 7.248 8.78007 7.22318C8.69265 6.96762 8.39139 6.60615 8.26175 6.55798H8.26183Z" fill="#1F3A12"/>
<path d="M11.6842 6.23597C11.51 6.51679 11.2616 6.73377 10.977 6.89722C10.8932 6.50698 10.6668 6.06263 10.6747 5.92392C10.6876 5.69483 11.3654 5.96443 11.6842 6.23597Z" fill="white"/>
<path d="M10.977 7.02983C10.9586 7.02983 10.9403 7.02604 10.923 7.01838C10.8843 7.00114 10.8562 6.9665 10.8473 6.9251C10.8071 6.73771 10.7318 6.5359 10.6654 6.35787C10.5809 6.13123 10.537 6.00866 10.5422 5.91642C10.5471 5.83108 10.5951 5.76277 10.674 5.72895C10.9296 5.61953 11.5289 5.92972 11.7701 6.13503C11.8199 6.17754 11.8313 6.25017 11.7967 6.30584C11.6218 6.58763 11.3683 6.82534 11.0429 7.01214C11.0226 7.02381 10.9998 7.02976 10.9769 7.02976L10.977 7.02983ZM10.8127 5.96852C10.8285 6.03602 10.875 6.16089 10.914 6.26518C10.961 6.39132 11.0163 6.53946 11.0602 6.68872C11.2396 6.56608 11.3885 6.42418 11.5049 6.26481C11.2647 6.09541 10.9388 5.96986 10.8127 5.96852H10.8127Z" fill="#1F3A12"/>
<path d="M10.3596 1.02769C10.5357 0.789014 10.7169 0.568249 10.948 0.374986C11.0047 0.328306 11.0885 0.336482 11.1352 0.393197C11.1872 0.455264 11.1698 0.552044 11.0998 0.592406C10.9288 0.693126 10.7627 0.83064 10.6125 0.967559C10.5608 1.01491 10.5093 1.06419 10.4606 1.11325C10.4032 1.17041 10.3127 1.09333 10.3596 1.02762V1.02769Z" fill="#1F3A12"/>
<path d="M8.27581 0.367105C8.38486 0.50291 8.48818 0.634179 8.57894 0.784924C8.5976 0.816664 8.58704 0.857546 8.5553 0.876278C8.52802 0.892334 8.49405 0.886759 8.47316 0.864905C8.41727 0.81042 8.35401 0.758314 8.29009 0.707694C8.22653 0.657594 8.15986 0.607271 8.09437 0.560516C7.93634 0.435193 8.1406 0.217401 8.27581 0.36718V0.367105Z" fill="#1F3A12"/>
<path d="M11.6007 1.60637C12.1535 1.61543 12.5743 2.20503 12.5405 2.9233C12.5067 3.64157 12.031 4.21653 11.4782 4.20753C10.9253 4.19846 10.5045 3.60886 10.5383 2.8906C10.5721 2.17233 11.0478 1.59737 11.6007 1.60637Z" fill="#1F3A12"/>
<path d="M11.5931 1.908C11.7568 1.99177 11.7943 2.2416 11.6769 2.46586C11.5594 2.69019 11.3315 2.80407 11.1678 2.72022C11.0042 2.63645 10.9666 2.38662 11.0841 2.16236C11.2015 1.93803 11.4294 1.82416 11.5931 1.908Z" fill="white"/>
<path d="M11.9421 3.49774C12.0159 3.56122 12.0053 3.69553 11.9185 3.79781C11.8317 3.90002 11.7014 3.93146 11.6276 3.86798C11.5538 3.8045 11.5643 3.67019 11.6511 3.56798C11.738 3.46577 11.8683 3.43433 11.942 3.49781L11.9421 3.49774Z" fill="#B199C5"/>
<path d="M7.16017 1.13882C7.51518 1.20118 7.71089 1.62636 7.59746 2.08841C7.48403 2.55053 7.10427 2.87461 6.74927 2.81225C6.39433 2.74988 6.19847 2.32471 6.31197 1.86266C6.4254 1.40054 6.80516 1.07645 7.16017 1.13882Z" fill="#1F3A12"/>
<path d="M7.11674 1.33349C7.21151 1.40455 7.20378 1.57024 7.09949 1.70366C6.99521 1.83702 6.83391 1.88756 6.73913 1.8165C6.64436 1.74544 6.65209 1.57975 6.75638 1.44633C6.86066 1.3129 7.02196 1.26243 7.11674 1.33342V1.33349Z" fill="white"/>
<path d="M7.13897 2.3996C7.17849 2.44834 7.15453 2.53443 7.08547 2.59188C7.01642 2.64932 6.92839 2.65639 6.88895 2.60765C6.84944 2.55891 6.8734 2.47282 6.94252 2.41537C7.01158 2.35792 7.09961 2.35086 7.13905 2.3996H7.13897Z" fill="#B199C5"/>
<path d="M10.8979 4.18419C9.63399 2.66076 5.85526 2.39399 4.41568 3.7553C4.37948 3.79061 4.32826 3.80116 4.28314 3.78704C3.60167 3.57177 2.822 3.59147 2.20423 3.97012C1.52796 4.3669 1.25947 4.97999 1.31597 5.75631C1.37372 6.40716 1.677 7.25142 2.41771 7.32664C2.72537 7.36396 3.02582 7.22629 3.31207 7.11324C3.76178 6.93744 4.23973 7.0621 4.63882 7.29921C4.79729 7.3922 4.9499 7.49382 5.12086 7.56146C6.18001 7.98894 7.31023 7.51567 8.36552 7.281C8.55573 7.24213 8.74996 7.21388 8.94434 7.20028C9.13344 7.18571 9.31897 7.19136 9.50673 7.17241C10.3326 7.09294 11.2475 6.78618 11.653 6.01201C11.8282 5.71268 12.0609 5.41312 12.4031 5.29991C12.5002 5.26959 12.607 5.25323 12.7039 5.28178C12.6148 5.31314 12.5386 5.36503 12.4663 5.42159C12.1894 5.65135 11.9905 5.95827 11.8246 6.27448C11.6755 6.54066 11.4523 6.76358 11.2032 6.93365C10.709 7.26614 10.1182 7.41993 9.53067 7.46549C9.34253 7.48162 9.14979 7.47337 8.96248 7.48423C8.59208 7.50095 8.23804 7.58569 7.87842 7.68232C6.87442 7.94568 5.71425 8.23617 4.75069 7.67496C4.34157 7.41681 3.89119 7.17211 3.40283 7.3624C3.08194 7.49173 2.75213 7.63296 2.38962 7.59022C1.95128 7.54473 1.60519 7.2813 1.39461 6.90823C1.00429 6.22319 0.913684 5.33106 1.24535 4.60551C1.41312 4.23667 1.72479 3.9502 2.06746 3.74289C2.75139 3.32366 3.61334 3.29675 4.36275 3.53401L4.23022 3.56575C4.92321 2.91572 5.89027 2.69845 6.80604 2.61052C7.72344 2.53269 8.66946 2.63951 9.51654 3.01243C10.0747 3.25393 10.6074 3.6418 10.898 4.18397L10.8979 4.18419Z" fill="#1F3A12"/>
<path d="M17.0483 9.85935C17.0483 9.85935 16.4018 12.5612 13.2566 13.719C12.8077 13.5299 12.5194 13.1085 12.369 12.623C12.1513 11.9191 12.2231 11.0812 12.5152 10.622C14.3789 10.8535 15.4838 9.07597 15.4838 9.07597L16.6747 9.1674L16.8939 9.18434L17.0483 9.85935Z" fill="#49AF08"/>
<g opacity="0.7">
<path d="M16.9726 9.52783L15.6929 9.34296C15.6929 9.34296 14.642 10.8052 13.0185 10.7335C12.9818 10.7034 12.9405 10.6725 12.8984 10.642C14.529 10.6115 15.4838 9.07589 15.4838 9.07589L16.8939 9.18434L16.9726 9.52783Z" fill="#F7F7F7"/>
</g>
<path d="M12.5176 10.6027C13.636 10.5984 14.5351 9.99671 15.2254 9.15557C15.2676 9.10398 15.3144 9.04608 15.3526 8.99435C15.3839 8.94395 15.4401 8.91764 15.4956 8.92187L16.9057 9.0304C16.9747 9.03575 17.0296 9.08585 17.0444 9.14992C17.045 9.17742 17.2256 9.88202 17.2001 9.88766C17.1721 10.0131 17.1362 10.1306 17.0943 10.2506C16.4849 11.9329 15.015 13.3249 13.2632 13.737L13.2499 13.7008C13.3525 13.6425 13.4567 13.5901 13.5587 13.5339C13.6138 13.5016 13.7341 13.4357 13.7868 13.4065C13.8598 13.3613 13.9371 13.3161 14.0101 13.2734C15.2578 12.5189 16.2257 11.4915 16.7854 10.1341C16.8259 10.0328 16.8669 9.92647 16.8982 9.82322L16.8979 9.89354L16.7435 9.2186L16.8821 9.33813L15.4719 9.22961L15.6149 9.15721C15.0635 10.0609 14.0454 10.7675 12.9577 10.7107C12.8064 10.704 12.6572 10.6772 12.5129 10.6409L12.5176 10.6027L12.5176 10.6027Z" fill="#1F3A12"/>
<g opacity="0.25">
<path d="M17.0483 9.85935C17.0483 9.85935 16.4018 12.5612 13.2565 13.719C12.8077 13.5299 12.5194 13.1085 12.369 12.623C13.2338 12.7866 14.4279 12.1661 15.3985 11.3973C16.5755 10.4652 15.8605 9.40897 15.823 9.35805L16.6748 9.16739L16.894 9.18434L17.0484 9.85935H17.0483Z" fill="#1F3A12"/>
</g>
<path d="M17.6241 9.67946C17.1478 9.97545 16.7233 9.91754 16.0738 9.5444C15.4243 9.17163 15.2487 8.75016 15.0943 8.47499C14.9399 8.20018 14.8485 7.75174 15.2537 7.80965C15.659 7.86755 15.8935 8.15506 15.8935 8.15506C15.9935 7.46579 16.09 7.01385 16.2529 6.82861C16.3328 6.7383 16.4694 6.73332 16.5578 6.8159C16.9013 7.1362 16.9229 7.71785 16.9229 7.71785C17.1093 7.4087 17.293 7.24584 17.4065 7.16712C17.4077 7.16638 17.4084 7.16556 17.4096 7.16482C17.4872 7.11115 17.5906 7.11308 17.6651 7.17024C17.9012 7.35087 17.8642 7.76304 17.8117 8.02275C17.8114 8.02394 17.811 8.02506 17.811 8.02588C17.8013 8.07293 17.7913 8.115 17.7821 8.14934C17.7802 8.15781 17.7779 8.16555 17.7759 8.1729C17.7759 8.17365 17.7759 8.17409 17.7755 8.17484C17.7624 8.22308 17.7528 8.25162 17.7528 8.25162C17.7528 8.25162 18.2287 7.87223 18.512 8.02008C18.7949 8.1683 18.1002 9.38392 17.6244 9.67953L17.6241 9.67946Z" fill="#49AF08"/>
<g opacity="0.25">
<path d="M17.6241 9.67946C17.1478 9.97545 16.7233 9.91754 16.0738 9.5444C15.4243 9.17162 15.2487 8.75016 15.0943 8.47499C15.082 8.45299 15.07 8.42987 15.0588 8.40593C15.2043 8.60893 15.4185 8.83007 15.7778 9.03656C16.4277 9.40934 16.8522 9.46724 17.3281 9.17162C17.6276 8.9852 18.0142 8.4341 18.1887 8.01465C18.301 7.98031 18.4172 7.97065 18.5117 8.02008C18.7947 8.16829 18.1 9.38392 17.6242 9.67953L17.6241 9.67946Z" fill="#1F3A12"/>
</g>
<g opacity="0.7">
<path d="M15.924 7.95244C16.014 7.37667 16.1066 6.99497 16.2529 6.82862C16.3305 6.74098 16.4613 6.7337 16.5497 6.80892C16.5428 6.81472 16.5358 6.82126 16.5296 6.82862C16.3664 7.01385 16.2703 7.46579 16.1703 8.15507C16.1703 8.15507 16.0835 8.04855 15.9241 7.95244H15.924Z" fill="#F7F7F7"/>
</g>
<g opacity="0.7">
<path d="M16.3505 9.5444C16.6601 9.72235 16.9182 9.82842 17.1555 9.8589C16.8402 9.90209 16.5072 9.79327 16.0738 9.5444C15.4243 9.17163 15.2487 8.75017 15.0943 8.47499C14.9399 8.20019 14.8485 7.75174 15.2537 7.80965C15.2865 7.81426 15.3181 7.82043 15.3482 7.82816C15.1626 7.91847 15.2463 8.25304 15.371 8.47499C15.5254 8.75017 15.7006 9.17156 16.3505 9.5444H16.3505Z" fill="#F7F7F7"/>
</g>
<path d="M17.0164 10.0215C16.6838 10.0215 16.3545 9.88373 15.9969 9.67835C15.3767 9.32223 15.1548 8.91087 15.008 8.63875C14.9914 8.60797 14.9755 8.57861 14.9599 8.55074C14.8355 8.32923 14.7392 7.99927 14.8768 7.79835C14.9231 7.73078 15.0362 7.62256 15.2755 7.6566C15.4878 7.68693 15.6591 7.77189 15.7829 7.85588C15.8739 7.28858 15.9702 6.91618 16.1371 6.72671C16.2029 6.65193 16.2937 6.60808 16.3928 6.60324C16.4929 6.59819 16.5891 6.63372 16.6631 6.70285C16.8538 6.8808 16.9569 7.12305 17.0125 7.32568C17.1306 7.18563 17.2392 7.09487 17.3218 7.03771C17.455 6.94547 17.6306 6.94941 17.7588 7.04753C18.0229 7.24948 18.0289 7.63579 17.9861 7.92798C18.169 7.84317 18.3956 7.78534 18.583 7.88324C18.6357 7.91081 18.7251 7.98165 18.7312 8.14689C18.7469 8.56865 18.1526 9.53273 17.7054 9.81066C17.4677 9.95843 17.2413 10.0214 17.0163 10.0215H17.0164ZM15.1864 7.95876C15.1583 7.95876 15.1378 7.96366 15.1316 7.97281C15.099 8.02038 15.1203 8.20576 15.2291 8.39955C15.2455 8.42883 15.2622 8.45975 15.2797 8.49209C15.4254 8.76214 15.6067 9.09819 16.1507 9.41053C16.7699 9.76614 17.1341 9.80226 17.5424 9.54834C17.7218 9.43685 17.9664 9.1471 18.1656 8.81015C18.3815 8.44481 18.4309 8.21691 18.4227 8.14934C18.2838 8.10125 18.0027 8.25021 17.8486 8.37241C17.7951 8.41486 17.7199 8.41716 17.664 8.37784C17.608 8.33859 17.5845 8.26724 17.6062 8.20242C17.667 8.01993 17.7913 7.46081 17.5713 7.2926C17.5502 7.27647 17.5198 7.27595 17.4975 7.29141C17.4092 7.35243 17.2346 7.49924 17.0551 7.79731C17.0198 7.85581 16.9505 7.8842 16.8842 7.86711C16.8182 7.85001 16.7711 7.79159 16.7686 7.72335C16.7684 7.71844 16.744 7.20057 16.4524 6.92845C16.4355 6.91269 16.4173 6.91105 16.4078 6.9115C16.3972 6.91202 16.3818 6.91574 16.3687 6.93068C16.2196 7.1 16.1257 7.62984 16.0464 8.17722C16.0377 8.2378 15.9939 8.28753 15.9349 8.30388C15.8761 8.32016 15.8132 8.30031 15.7745 8.25319C15.7701 8.24798 15.5667 8.01005 15.2318 7.96218C15.2153 7.9598 15.2 7.95868 15.1864 7.95868V7.95876Z" fill="#1F3A12"/>
<path d="M15.8892 8.00091C16.2576 8.04736 16.642 8.24181 16.7987 8.59221L16.8264 8.65696L16.7824 8.60247C16.7597 8.57081 16.7148 8.53223 16.6868 8.50473C16.4693 8.32663 16.1708 8.26895 15.8982 8.30953L15.8892 8.00091Z" fill="#1F3A12"/>
<g opacity="0.25">
<path d="M17.8116 8.02268C17.8112 8.02387 17.8109 8.02499 17.8109 8.0258C17.7996 8.06899 17.79 8.11069 17.7819 8.14927L17.7808 8.15507C17.7796 8.16087 17.7781 8.16703 17.7757 8.17283C17.7757 8.17358 17.7757 8.17402 17.7753 8.17477C17.6862 8.43374 16.8981 8.68922 17.2702 8.18554C17.6515 7.66953 17.3956 7.23536 17.3956 7.23536L17.4063 7.16705C17.4075 7.16631 17.4083 7.16549 17.4095 7.16475C17.4871 7.11108 17.5905 7.11301 17.6649 7.17017C17.9011 7.3508 17.8641 7.76297 17.8116 8.02268Z" fill="#1F3A12"/>
</g>
</svg>
