<svg width="29" height="29" viewBox="0 0 29 29" fill="none" xmlns="http://www.w3.org/2000/svg">
<g clip-path="url(#clip0_31_2789)">
<path d="M18.9508 0H10.0487C1.92505 0 -0.000732422 1.92578 -0.000732422 10.0494V18.9515C-0.000732422 27.0751 1.92505 29.0009 10.0487 29.0009H18.9508C27.0744 29.0009 29.0002 27.0751 29.0002 18.9515V10.0494C29.0002 1.92578 27.0554 0 18.9508 0ZM23.4113 20.6879H21.3061C20.5086 20.6879 20.263 20.0553 18.8284 18.6017C17.5823 17.3937 17.0304 17.2332 16.7232 17.2332C16.2891 17.2332 16.1659 17.3556 16.1659 17.951V19.8532C16.1659 20.3634 16.0055 20.6697 14.6551 20.6697C12.4221 20.6697 9.94445 19.3194 8.20717 16.8037C5.5872 13.1171 4.87036 10.3557 4.87036 9.78478C4.87036 9.47756 4.9927 9.19028 5.58267 9.19028H7.69242C8.2262 9.19028 8.4292 9.43587 8.63674 10.0068C9.67983 13.0183 11.4171 15.6564 12.134 15.6564C12.3986 15.6564 12.5209 15.534 12.5209 14.8589V11.7486C12.4403 10.314 11.6854 10.1908 11.6854 9.68147C11.6854 9.43587 11.8884 9.19028 12.2137 9.19028H15.5315C15.9801 9.19028 16.145 9.43587 16.145 9.96422V14.1602C16.145 14.6133 16.348 14.7737 16.4704 14.7737C16.735 14.7737 16.9615 14.6133 17.4518 14.1221C18.9671 12.4229 20.0528 9.80291 20.0528 9.80291C20.1941 9.49569 20.4397 9.20841 20.9735 9.20841H23.0833C23.7158 9.20841 23.8572 9.53375 23.7158 9.98687C23.4512 11.2139 20.8693 14.858 20.8693 14.858C20.6473 15.2259 20.5621 15.3863 20.8693 15.7968C21.0959 16.1041 21.8326 16.7412 22.3229 17.3121C23.2246 18.3362 23.9179 19.1953 24.1028 19.7898C24.3103 20.3797 24.004 20.687 23.4086 20.687L23.4113 20.6879Z" fill="black"/>
</g>
<defs>
<clipPath id="clip0_31_2789">
<rect width="29" height="29" fill="white"/>
</clipPath>
</defs>
</svg>
