<svg width="31" height="31" viewBox="0 0 31 31" fill="none" xmlns="http://www.w3.org/2000/svg">
<g clip-path="url(#clip0_31_2783)">
<path d="M10.7994 1.01958C7.70201 2.09409 5.03084 4.13355 3.17822 6.83838C1.3256 9.54322 0.389186 12.7709 0.506528 16.0472C0.62387 19.3236 1.78878 22.476 3.83015 25.0414C5.87152 27.6067 8.68175 29.4499 11.8481 30.3001C14.4151 30.9624 17.1045 30.9915 19.6853 30.3848C22.0231 29.8597 24.1846 28.7364 25.9579 27.125C27.8036 25.3966 29.1432 23.1979 29.8329 20.7651C30.5825 18.1196 30.7159 15.3375 30.2228 12.6325H15.8078V18.6121H24.156C23.9892 19.5658 23.6317 20.476 23.1048 21.2883C22.578 22.1006 21.8927 22.7983 21.0899 23.3396C20.0705 24.0139 18.9214 24.4676 17.7163 24.6716C16.5076 24.8964 15.2679 24.8964 14.0592 24.6716C12.8342 24.4183 11.6754 23.9127 10.6565 23.187C9.01968 22.0283 7.79064 20.3823 7.14478 18.4837C6.48801 16.5496 6.48801 14.4528 7.14478 12.5186C7.60452 11.1629 8.36452 9.92853 9.36807 8.90763C10.5165 7.71788 11.9704 6.86743 13.5704 6.44961C15.1703 6.03179 16.8545 6.06273 18.438 6.53903C19.675 6.91876 20.8062 7.58223 21.7414 8.47653C22.6827 7.54008 23.6224 6.6012 24.5605 5.65989C25.0449 5.15372 25.5728 4.67177 26.0499 4.15349C24.6224 2.82503 22.9467 1.79133 21.119 1.11161C17.7906 -0.0969271 14.1488 -0.129405 10.7994 1.01958Z" fill="white"/>
<path d="M10.799 1.0196C14.1482 -0.130169 17.79 -0.0985456 21.1186 1.10921C22.9467 1.79354 24.6216 2.83222 26.0472 4.16562C25.5628 4.6839 25.0518 5.16827 24.5577 5.67202C23.618 6.61009 22.6791 7.54494 21.7411 8.47655C20.8059 7.58225 19.6747 6.91878 18.4376 6.53905C16.8546 6.06107 15.1706 6.02835 13.5702 6.44446C11.9698 6.86057 10.515 7.70945 9.36529 8.89796C8.36174 9.91887 7.60174 11.1532 7.14201 12.509L2.12146 8.62187C3.91851 5.05822 7.02999 2.33231 10.799 1.0196Z" fill="#E33629"/>
<path d="M0.789441 12.4727C1.05929 11.1353 1.50729 9.84015 2.12147 8.62189L7.14202 12.5187C6.48524 14.4528 6.48524 16.5496 7.14202 18.4838C5.46931 19.7754 3.7958 21.0736 2.12147 22.3781C0.583947 19.3177 0.115028 15.8306 0.789441 12.4727Z" fill="#F8BD00"/>
<path d="M15.8076 12.6301H30.2226C30.7157 15.3351 30.5823 18.1172 29.8327 20.7627C29.143 23.1954 27.8033 25.3942 25.9577 27.1226C24.3374 25.8583 22.7099 24.6038 21.0897 23.3396C21.893 22.7978 22.5786 22.0993 23.1055 21.2862C23.6323 20.473 23.9896 19.5618 24.1558 18.6073H15.8076C15.8052 16.6165 15.8076 14.6233 15.8076 12.6301Z" fill="#587DBD"/>
<path d="M2.11914 22.3781C3.79346 21.0864 5.46698 19.7883 7.13969 18.4837C7.78683 20.3829 9.01762 22.0291 10.6562 23.187C11.6783 23.9093 12.8396 24.4108 14.0663 24.6595C15.2749 24.8842 16.5146 24.8842 17.7233 24.6595C18.9284 24.4555 20.0775 24.0018 21.097 23.3275C22.7172 24.5917 24.3447 25.8462 25.9649 27.1104C24.1918 28.7227 22.0304 29.8469 19.6923 30.3727C17.1115 30.9794 14.4221 30.9503 11.8551 30.2879C9.82482 29.7458 7.92843 28.7902 6.28477 27.481C4.54504 26.0997 3.12411 24.3591 2.11914 22.3781Z" fill="#319F43"/>
</g>
<defs>
<clipPath id="clip0_31_2783">
<rect width="31" height="31" fill="white"/>
</clipPath>
</defs>
</svg>
